SplineFontDB: 3.0
FontName: dotmatrixnumberoneMedium
FullName: dotmatrixnumberone Medium
FamilyName: dotmatrixnumberone
Weight: Medium
Copyright: Public domain font.  Share and enjoy.
UComments: "2014-9-1: Created." 
Version: 001.000
ItalicAngle: 0
UnderlinePosition: -131.072
UnderlineWidth: 131.072
Ascent: 896
Descent: 128
LayerCount: 2
Layer: 0 0 "Back"  1
Layer: 1 0 "Fore"  0
XUID: [1021 63 1444778028 15497901]
OS2Version: 0
OS2_WeightWidthSlopeOnly: 0
OS2_UseTypoMetrics: 1
CreationTime: 1409616509
ModificationTime: 1410377276
OS2TypoAscent: 0
OS2TypoAOffset: 1
OS2TypoDescent: 0
OS2TypoDOffset: 1
OS2TypoLinegap: 0
OS2WinAscent: 0
OS2WinAOffset: 1
OS2WinDescent: 0
OS2WinDOffset: 1
HheadAscent: 0
HheadAOffset: 1
HheadDescent: 0
HheadDOffset: 1
OS2Vendor: 'PfEd'
MarkAttachClasses: 1
DEI: 91125
Encoding: UnicodeBmp
UnicodeInterp: none
NameList: Adobe Glyph List
DisplaySize: 32
AntiAlias: 1
FitToEm: 1
WinInfo: 64 16 7
BeginPrivate: 0
EndPrivate
BeginChars: 256 42

StartChar: percent
Encoding: 37 37 0
Width: 630
VWidth: 0
Flags: HW
LayerCount: 2
Back
Fore
SplineSet
384 0 m 1
 384 32 l 1
 352 32 l 1
 352 64 l 1
 384 64 l 1
 384 96 l 1
 416 96 l 1
 448 96 l 1
 480 96 l 1
 512 96 l 1
 544 96 l 1
 576 96 l 1
 576 64 l 1
 608 64 l 1
 608 32 l 1
 576 32 l 1
 576 0 l 1
 544 0 l 1
 512 0 l 1
 480 0 l 1
 448 0 l 1
 416 0 l 1
 384 0 l 1
96 128 m 1
 96 160 l 1
 64 160 l 1
 64 192 l 1
 96 192 l 1
 96 224 l 1
 128 224 l 1
 160 224 l 1
 192 224 l 1
 192 192 l 1
 224 192 l 1
 224 160 l 1
 192 160 l 1
 192 128 l 1
 160 128 l 1
 128 128 l 1
 96 128 l 1
384 128 m 1
 384 160 l 1
 352 160 l 1
 352 192 l 1
 384 192 l 1
 384 224 l 1
 416 224 l 1
 448 224 l 1
 480 224 l 1
 512 224 l 1
 544 224 l 1
 576 224 l 1
 576 192 l 1
 608 192 l 1
 608 160 l 1
 576 160 l 1
 576 128 l 1
 544 128 l 1
 512 128 l 1
 480 128 l 1
 448 128 l 1
 416 128 l 1
 384 128 l 1
192 256 m 1
 192 288 l 1
 160 288 l 1
 160 320 l 1
 192 320 l 1
 192 352 l 1
 224 352 l 1
 256 352 l 1
 288 352 l 1
 288 320 l 1
 320 320 l 1
 320 288 l 1
 288 288 l 1
 288 256 l 1
 256 256 l 1
 224 256 l 1
 192 256 l 1
288 384 m 1
 288 416 l 1
 256 416 l 1
 256 448 l 1
 288 448 l 1
 288 480 l 1
 320 480 l 1
 352 480 l 1
 384 480 l 1
 384 448 l 1
 416 448 l 1
 416 416 l 1
 384 416 l 1
 384 384 l 1
 352 384 l 1
 320 384 l 1
 288 384 l 1
384 512 m 1
 384 544 l 1
 352 544 l 1
 352 576 l 1
 384 576 l 1
 384 608 l 1
 416 608 l 1
 448 608 l 1
 480 608 l 1
 480 576 l 1
 512 576 l 1
 512 544 l 1
 480 544 l 1
 480 512 l 1
 448 512 l 1
 416 512 l 1
 384 512 l 1
96 640 m 1
 96 672 l 1
 64 672 l 1
 64 704 l 1
 96 704 l 1
 96 736 l 1
 128 736 l 1
 160 736 l 1
 192 736 l 1
 224 736 l 1
 256 736 l 1
 288 736 l 1
 288 704 l 1
 320 704 l 1
 320 672 l 1
 288 672 l 1
 288 640 l 1
 256 640 l 1
 224 640 l 1
 192 640 l 1
 160 640 l 1
 128 640 l 1
 96 640 l 1
480 640 m 1
 480 672 l 1
 448 672 l 1
 448 704 l 1
 480 704 l 1
 480 736 l 1
 512 736 l 1
 544 736 l 1
 576 736 l 1
 576 704 l 1
 608 704 l 1
 608 672 l 1
 576 672 l 1
 576 640 l 1
 544 640 l 1
 512 640 l 1
 480 640 l 1
96 768 m 1
 96 800 l 1
 64 800 l 1
 64 832 l 1
 96 832 l 1
 96 864 l 1
 128 864 l 1
 160 864 l 1
 192 864 l 1
 224 864 l 1
 256 864 l 1
 288 864 l 1
 288 832 l 1
 320 832 l 1
 320 800 l 1
 288 800 l 1
 288 768 l 1
 256 768 l 1
 224 768 l 1
 192 768 l 1
 160 768 l 1
 128 768 l 1
 96 768 l 1
EndSplineSet
EndChar

StartChar: hyphen
Encoding: 45 45 1
Width: 630
VWidth: 0
Flags: HW
LayerCount: 2
Back
Fore
SplineSet
96 384 m 1
 96 416 l 1
 64 416 l 1
 64 448 l 1
 96 448 l 1
 96 480 l 1
 128 480 l 1
 160 480 l 1
 192 480 l 1
 224 480 l 1
 256 480 l 1
 288 480 l 1
 320 480 l 1
 352 480 l 1
 384 480 l 1
 416 480 l 1
 448 480 l 1
 480 480 l 1
 512 480 l 1
 544 480 l 1
 576 480 l 1
 576 448 l 1
 608 448 l 1
 608 416 l 1
 576 416 l 1
 576 384 l 1
 544 384 l 1
 512 384 l 1
 480 384 l 1
 448 384 l 1
 416 384 l 1
 384 384 l 1
 352 384 l 1
 320 384 l 1
 288 384 l 1
 256 384 l 1
 224 384 l 1
 192 384 l 1
 160 384 l 1
 128 384 l 1
 96 384 l 1
EndSplineSet
EndChar

StartChar: period
Encoding: 46 46 2
Width: 630
VWidth: 0
Flags: HW
LayerCount: 2
Back
Fore
SplineSet
288 0 m 1
 288 32 l 1
 256 32 l 1
 256 64 l 1
 288 64 l 1
 288 96 l 1
 320 96 l 1
 352 96 l 1
 384 96 l 1
 384 64 l 1
 416 64 l 1
 416 32 l 1
 384 32 l 1
 384 0 l 1
 352 0 l 1
 320 0 l 1
 288 0 l 1
EndSplineSet
EndChar

StartChar: slash
Encoding: 47 47 3
Width: 630
VWidth: 0
Flags: HW
LayerCount: 2
Back
Fore
SplineSet
96 128 m 1
 96 160 l 1
 64 160 l 1
 64 192 l 1
 96 192 l 1
 96 224 l 1
 128 224 l 1
 160 224 l 1
 192 224 l 1
 192 192 l 1
 224 192 l 1
 224 160 l 1
 192 160 l 1
 192 128 l 1
 160 128 l 1
 128 128 l 1
 96 128 l 1
192 256 m 1
 192 288 l 1
 160 288 l 1
 160 320 l 1
 192 320 l 1
 192 352 l 1
 224 352 l 1
 256 352 l 1
 288 352 l 1
 288 320 l 1
 320 320 l 1
 320 288 l 1
 288 288 l 1
 288 256 l 1
 256 256 l 1
 224 256 l 1
 192 256 l 1
288 384 m 1
 288 416 l 1
 256 416 l 1
 256 448 l 1
 288 448 l 1
 288 480 l 1
 320 480 l 1
 352 480 l 1
 384 480 l 1
 384 448 l 1
 416 448 l 1
 416 416 l 1
 384 416 l 1
 384 384 l 1
 352 384 l 1
 320 384 l 1
 288 384 l 1
384 512 m 1
 384 544 l 1
 352 544 l 1
 352 576 l 1
 384 576 l 1
 384 608 l 1
 416 608 l 1
 448 608 l 1
 480 608 l 1
 480 576 l 1
 512 576 l 1
 512 544 l 1
 480 544 l 1
 480 512 l 1
 448 512 l 1
 416 512 l 1
 384 512 l 1
480 640 m 1
 480 672 l 1
 448 672 l 1
 448 704 l 1
 480 704 l 1
 480 736 l 1
 512 736 l 1
 544 736 l 1
 576 736 l 1
 576 704 l 1
 608 704 l 1
 608 672 l 1
 576 672 l 1
 576 640 l 1
 544 640 l 1
 512 640 l 1
 480 640 l 1
EndSplineSet
EndChar

StartChar: zero
Encoding: 48 48 4
Width: 630
VWidth: 0
Flags: HW
LayerCount: 2
Back
Fore
SplineSet
192 0 m 1
 192 32 l 1
 160 32 l 1
 160 64 l 1
 192 64 l 1
 192 96 l 1
 224 96 l 1
 256 96 l 1
 288 96 l 1
 320 96 l 1
 352 96 l 1
 384 96 l 1
 416 96 l 1
 448 96 l 1
 480 96 l 1
 480 64 l 1
 512 64 l 1
 512 32 l 1
 480 32 l 1
 480 0 l 1
 448 0 l 1
 416 0 l 1
 384 0 l 1
 352 0 l 1
 320 0 l 1
 288 0 l 1
 256 0 l 1
 224 0 l 1
 192 0 l 1
96 128 m 1
 96 160 l 1
 64 160 l 1
 64 192 l 1
 96 192 l 1
 96 224 l 1
 128 224 l 1
 160 224 l 1
 192 224 l 1
 192 192 l 1
 224 192 l 1
 224 160 l 1
 192 160 l 1
 192 128 l 1
 160 128 l 1
 128 128 l 1
 96 128 l 1
480 128 m 1
 480 160 l 1
 448 160 l 1
 448 192 l 1
 480 192 l 1
 480 224 l 1
 512 224 l 1
 544 224 l 1
 576 224 l 1
 576 192 l 1
 608 192 l 1
 608 160 l 1
 576 160 l 1
 576 128 l 1
 544 128 l 1
 512 128 l 1
 480 128 l 1
96 256 m 1
 96 288 l 1
 64 288 l 1
 64 320 l 1
 96 320 l 1
 96 352 l 1
 128 352 l 1
 160 352 l 1
 192 352 l 1
 224 352 l 1
 256 352 l 1
 288 352 l 1
 288 320 l 1
 320 320 l 1
 320 288 l 1
 288 288 l 1
 288 256 l 1
 256 256 l 1
 224 256 l 1
 192 256 l 1
 160 256 l 1
 128 256 l 1
 96 256 l 1
480 256 m 1
 480 288 l 1
 448 288 l 1
 448 320 l 1
 480 320 l 1
 480 352 l 1
 512 352 l 1
 544 352 l 1
 576 352 l 1
 576 320 l 1
 608 320 l 1
 608 288 l 1
 576 288 l 1
 576 256 l 1
 544 256 l 1
 512 256 l 1
 480 256 l 1
96 384 m 1
 96 416 l 1
 64 416 l 1
 64 448 l 1
 96 448 l 1
 96 480 l 1
 128 480 l 1
 160 480 l 1
 192 480 l 1
 192 448 l 1
 224 448 l 1
 224 416 l 1
 192 416 l 1
 192 384 l 1
 160 384 l 1
 128 384 l 1
 96 384 l 1
288 384 m 1
 288 416 l 1
 256 416 l 1
 256 448 l 1
 288 448 l 1
 288 480 l 1
 320 480 l 1
 352 480 l 1
 384 480 l 1
 384 448 l 1
 416 448 l 1
 416 416 l 1
 384 416 l 1
 384 384 l 1
 352 384 l 1
 320 384 l 1
 288 384 l 1
480 384 m 1
 480 416 l 1
 448 416 l 1
 448 448 l 1
 480 448 l 1
 480 480 l 1
 512 480 l 1
 544 480 l 1
 576 480 l 1
 576 448 l 1
 608 448 l 1
 608 416 l 1
 576 416 l 1
 576 384 l 1
 544 384 l 1
 512 384 l 1
 480 384 l 1
96 512 m 1
 96 544 l 1
 64 544 l 1
 64 576 l 1
 96 576 l 1
 96 608 l 1
 128 608 l 1
 160 608 l 1
 192 608 l 1
 192 576 l 1
 224 576 l 1
 224 544 l 1
 192 544 l 1
 192 512 l 1
 160 512 l 1
 128 512 l 1
 96 512 l 1
384 512 m 1
 384 544 l 1
 352 544 l 1
 352 576 l 1
 384 576 l 1
 384 608 l 1
 416 608 l 1
 448 608 l 1
 480 608 l 1
 512 608 l 1
 544 608 l 1
 576 608 l 1
 576 576 l 1
 608 576 l 1
 608 544 l 1
 576 544 l 1
 576 512 l 1
 544 512 l 1
 512 512 l 1
 480 512 l 1
 448 512 l 1
 416 512 l 1
 384 512 l 1
96 640 m 1
 96 672 l 1
 64 672 l 1
 64 704 l 1
 96 704 l 1
 96 736 l 1
 128 736 l 1
 160 736 l 1
 192 736 l 1
 192 704 l 1
 224 704 l 1
 224 672 l 1
 192 672 l 1
 192 640 l 1
 160 640 l 1
 128 640 l 1
 96 640 l 1
480 640 m 1
 480 672 l 1
 448 672 l 1
 448 704 l 1
 480 704 l 1
 480 736 l 1
 512 736 l 1
 544 736 l 1
 576 736 l 1
 576 704 l 1
 608 704 l 1
 608 672 l 1
 576 672 l 1
 576 640 l 1
 544 640 l 1
 512 640 l 1
 480 640 l 1
192 768 m 1
 192 800 l 1
 160 800 l 1
 160 832 l 1
 192 832 l 1
 192 864 l 1
 224 864 l 1
 256 864 l 1
 288 864 l 1
 320 864 l 1
 352 864 l 1
 384 864 l 1
 416 864 l 1
 448 864 l 1
 480 864 l 1
 480 832 l 1
 512 832 l 1
 512 800 l 1
 480 800 l 1
 480 768 l 1
 448 768 l 1
 416 768 l 1
 384 768 l 1
 352 768 l 1
 320 768 l 1
 288 768 l 1
 256 768 l 1
 224 768 l 1
 192 768 l 1
EndSplineSet
EndChar

StartChar: one
Encoding: 49 49 5
Width: 630
VWidth: 0
Flags: HW
LayerCount: 2
Back
Fore
SplineSet
192 0 m 1
 192 32 l 1
 160 32 l 1
 160 64 l 1
 192 64 l 1
 192 96 l 1
 224 96 l 1
 256 96 l 1
 288 96 l 1
 320 96 l 1
 352 96 l 1
 384 96 l 1
 416 96 l 1
 448 96 l 1
 480 96 l 1
 480 64 l 1
 512 64 l 1
 512 32 l 1
 480 32 l 1
 480 0 l 1
 448 0 l 1
 416 0 l 1
 384 0 l 1
 352 0 l 1
 320 0 l 1
 288 0 l 1
 256 0 l 1
 224 0 l 1
 192 0 l 1
288 128 m 1
 288 160 l 1
 256 160 l 1
 256 192 l 1
 288 192 l 1
 288 224 l 1
 320 224 l 1
 352 224 l 1
 384 224 l 1
 384 192 l 1
 416 192 l 1
 416 160 l 1
 384 160 l 1
 384 128 l 1
 352 128 l 1
 320 128 l 1
 288 128 l 1
288 256 m 1
 288 288 l 1
 256 288 l 1
 256 320 l 1
 288 320 l 1
 288 352 l 1
 320 352 l 1
 352 352 l 1
 384 352 l 1
 384 320 l 1
 416 320 l 1
 416 288 l 1
 384 288 l 1
 384 256 l 1
 352 256 l 1
 320 256 l 1
 288 256 l 1
288 384 m 1
 288 416 l 1
 256 416 l 1
 256 448 l 1
 288 448 l 1
 288 480 l 1
 320 480 l 1
 352 480 l 1
 384 480 l 1
 384 448 l 1
 416 448 l 1
 416 416 l 1
 384 416 l 1
 384 384 l 1
 352 384 l 1
 320 384 l 1
 288 384 l 1
288 512 m 1
 288 544 l 1
 256 544 l 1
 256 576 l 1
 288 576 l 1
 288 608 l 1
 320 608 l 1
 352 608 l 1
 384 608 l 1
 384 576 l 1
 416 576 l 1
 416 544 l 1
 384 544 l 1
 384 512 l 1
 352 512 l 1
 320 512 l 1
 288 512 l 1
192 640 m 1
 192 672 l 1
 160 672 l 1
 160 704 l 1
 192 704 l 1
 192 736 l 1
 224 736 l 1
 256 736 l 1
 288 736 l 1
 320 736 l 1
 352 736 l 1
 384 736 l 1
 384 704 l 1
 416 704 l 1
 416 672 l 1
 384 672 l 1
 384 640 l 1
 352 640 l 1
 320 640 l 1
 288 640 l 1
 256 640 l 1
 224 640 l 1
 192 640 l 1
288 768 m 1
 288 800 l 1
 256 800 l 1
 256 832 l 1
 288 832 l 1
 288 864 l 1
 320 864 l 1
 352 864 l 1
 384 864 l 1
 384 832 l 1
 416 832 l 1
 416 800 l 1
 384 800 l 1
 384 768 l 1
 352 768 l 1
 320 768 l 1
 288 768 l 1
EndSplineSet
EndChar

StartChar: two
Encoding: 50 50 6
Width: 630
VWidth: 0
Flags: HW
LayerCount: 2
Back
Fore
SplineSet
96 0 m 1
 96 32 l 1
 64 32 l 1
 64 64 l 1
 96 64 l 1
 96 96 l 1
 128 96 l 1
 160 96 l 1
 192 96 l 1
 224 96 l 1
 256 96 l 1
 288 96 l 1
 320 96 l 1
 352 96 l 1
 384 96 l 1
 416 96 l 1
 448 96 l 1
 480 96 l 1
 512 96 l 1
 544 96 l 1
 576 96 l 1
 576 64 l 1
 608 64 l 1
 608 32 l 1
 576 32 l 1
 576 0 l 1
 544 0 l 1
 512 0 l 1
 480 0 l 1
 448 0 l 1
 416 0 l 1
 384 0 l 1
 352 0 l 1
 320 0 l 1
 288 0 l 1
 256 0 l 1
 224 0 l 1
 192 0 l 1
 160 0 l 1
 128 0 l 1
 96 0 l 1
96 128 m 1
 96 160 l 1
 64 160 l 1
 64 192 l 1
 96 192 l 1
 96 224 l 1
 128 224 l 1
 160 224 l 1
 192 224 l 1
 192 192 l 1
 224 192 l 1
 224 160 l 1
 192 160 l 1
 192 128 l 1
 160 128 l 1
 128 128 l 1
 96 128 l 1
192 256 m 1
 192 288 l 1
 160 288 l 1
 160 320 l 1
 192 320 l 1
 192 352 l 1
 224 352 l 1
 256 352 l 1
 288 352 l 1
 288 320 l 1
 320 320 l 1
 320 288 l 1
 288 288 l 1
 288 256 l 1
 256 256 l 1
 224 256 l 1
 192 256 l 1
288 384 m 1
 288 416 l 1
 256 416 l 1
 256 448 l 1
 288 448 l 1
 288 480 l 1
 320 480 l 1
 352 480 l 1
 384 480 l 1
 416 480 l 1
 448 480 l 1
 480 480 l 1
 480 448 l 1
 512 448 l 1
 512 416 l 1
 480 416 l 1
 480 384 l 1
 448 384 l 1
 416 384 l 1
 384 384 l 1
 352 384 l 1
 320 384 l 1
 288 384 l 1
480 512 m 1
 480 544 l 1
 448 544 l 1
 448 576 l 1
 480 576 l 1
 480 608 l 1
 512 608 l 1
 544 608 l 1
 576 608 l 1
 576 576 l 1
 608 576 l 1
 608 544 l 1
 576 544 l 1
 576 512 l 1
 544 512 l 1
 512 512 l 1
 480 512 l 1
96 640 m 1
 96 672 l 1
 64 672 l 1
 64 704 l 1
 96 704 l 1
 96 736 l 1
 128 736 l 1
 160 736 l 1
 192 736 l 1
 192 704 l 1
 224 704 l 1
 224 672 l 1
 192 672 l 1
 192 640 l 1
 160 640 l 1
 128 640 l 1
 96 640 l 1
480 640 m 1
 480 672 l 1
 448 672 l 1
 448 704 l 1
 480 704 l 1
 480 736 l 1
 512 736 l 1
 544 736 l 1
 576 736 l 1
 576 704 l 1
 608 704 l 1
 608 672 l 1
 576 672 l 1
 576 640 l 1
 544 640 l 1
 512 640 l 1
 480 640 l 1
192 768 m 1
 192 800 l 1
 160 800 l 1
 160 832 l 1
 192 832 l 1
 192 864 l 1
 224 864 l 1
 256 864 l 1
 288 864 l 1
 320 864 l 1
 352 864 l 1
 384 864 l 1
 416 864 l 1
 448 864 l 1
 480 864 l 1
 480 832 l 1
 512 832 l 1
 512 800 l 1
 480 800 l 1
 480 768 l 1
 448 768 l 1
 416 768 l 1
 384 768 l 1
 352 768 l 1
 320 768 l 1
 288 768 l 1
 256 768 l 1
 224 768 l 1
 192 768 l 1
EndSplineSet
EndChar

StartChar: three
Encoding: 51 51 7
Width: 630
VWidth: 0
Flags: HW
LayerCount: 2
Back
Fore
SplineSet
192 0 m 1
 192 32 l 1
 160 32 l 1
 160 64 l 1
 192 64 l 1
 192 96 l 1
 224 96 l 1
 256 96 l 1
 288 96 l 1
 320 96 l 1
 352 96 l 1
 384 96 l 1
 416 96 l 1
 448 96 l 1
 480 96 l 1
 480 64 l 1
 512 64 l 1
 512 32 l 1
 480 32 l 1
 480 0 l 1
 448 0 l 1
 416 0 l 1
 384 0 l 1
 352 0 l 1
 320 0 l 1
 288 0 l 1
 256 0 l 1
 224 0 l 1
 192 0 l 1
96 128 m 1
 96 160 l 1
 64 160 l 1
 64 192 l 1
 96 192 l 1
 96 224 l 1
 128 224 l 1
 160 224 l 1
 192 224 l 1
 192 192 l 1
 224 192 l 1
 224 160 l 1
 192 160 l 1
 192 128 l 1
 160 128 l 1
 128 128 l 1
 96 128 l 1
480 128 m 1
 480 160 l 1
 448 160 l 1
 448 192 l 1
 480 192 l 1
 480 224 l 1
 512 224 l 1
 544 224 l 1
 576 224 l 1
 576 192 l 1
 608 192 l 1
 608 160 l 1
 576 160 l 1
 576 128 l 1
 544 128 l 1
 512 128 l 1
 480 128 l 1
480 256 m 1
 480 288 l 1
 448 288 l 1
 448 320 l 1
 480 320 l 1
 480 352 l 1
 512 352 l 1
 544 352 l 1
 576 352 l 1
 576 320 l 1
 608 320 l 1
 608 288 l 1
 576 288 l 1
 576 256 l 1
 544 256 l 1
 512 256 l 1
 480 256 l 1
288 384 m 1
 288 416 l 1
 256 416 l 1
 256 448 l 1
 288 448 l 1
 288 480 l 1
 320 480 l 1
 352 480 l 1
 384 480 l 1
 416 480 l 1
 448 480 l 1
 480 480 l 1
 480 448 l 1
 512 448 l 1
 512 416 l 1
 480 416 l 1
 480 384 l 1
 448 384 l 1
 416 384 l 1
 384 384 l 1
 352 384 l 1
 320 384 l 1
 288 384 l 1
384 512 m 1
 384 544 l 1
 352 544 l 1
 352 576 l 1
 384 576 l 1
 384 608 l 1
 416 608 l 1
 448 608 l 1
 480 608 l 1
 480 576 l 1
 512 576 l 1
 512 544 l 1
 480 544 l 1
 480 512 l 1
 448 512 l 1
 416 512 l 1
 384 512 l 1
480 640 m 1
 480 672 l 1
 448 672 l 1
 448 704 l 1
 480 704 l 1
 480 736 l 1
 512 736 l 1
 544 736 l 1
 576 736 l 1
 576 704 l 1
 608 704 l 1
 608 672 l 1
 576 672 l 1
 576 640 l 1
 544 640 l 1
 512 640 l 1
 480 640 l 1
96 768 m 1
 96 800 l 1
 64 800 l 1
 64 832 l 1
 96 832 l 1
 96 864 l 1
 128 864 l 1
 160 864 l 1
 192 864 l 1
 224 864 l 1
 256 864 l 1
 288 864 l 1
 320 864 l 1
 352 864 l 1
 384 864 l 1
 416 864 l 1
 448 864 l 1
 480 864 l 1
 512 864 l 1
 544 864 l 1
 576 864 l 1
 576 832 l 1
 608 832 l 1
 608 800 l 1
 576 800 l 1
 576 768 l 1
 544 768 l 1
 512 768 l 1
 480 768 l 1
 448 768 l 1
 416 768 l 1
 384 768 l 1
 352 768 l 1
 320 768 l 1
 288 768 l 1
 256 768 l 1
 224 768 l 1
 192 768 l 1
 160 768 l 1
 128 768 l 1
 96 768 l 1
EndSplineSet
EndChar

StartChar: four
Encoding: 52 52 8
Width: 630
VWidth: 0
Flags: HW
LayerCount: 2
Back
Fore
SplineSet
384 0 m 1
 384 32 l 1
 352 32 l 1
 352 64 l 1
 384 64 l 1
 384 96 l 1
 416 96 l 1
 448 96 l 1
 480 96 l 1
 480 64 l 1
 512 64 l 1
 512 32 l 1
 480 32 l 1
 480 0 l 1
 448 0 l 1
 416 0 l 1
 384 0 l 1
384 128 m 1
 384 160 l 1
 352 160 l 1
 352 192 l 1
 384 192 l 1
 384 224 l 1
 416 224 l 1
 448 224 l 1
 480 224 l 1
 480 192 l 1
 512 192 l 1
 512 160 l 1
 480 160 l 1
 480 128 l 1
 448 128 l 1
 416 128 l 1
 384 128 l 1
96 256 m 1
 96 288 l 1
 64 288 l 1
 64 320 l 1
 96 320 l 1
 96 352 l 1
 128 352 l 1
 160 352 l 1
 192 352 l 1
 224 352 l 1
 256 352 l 1
 288 352 l 1
 320 352 l 1
 352 352 l 1
 384 352 l 1
 416 352 l 1
 448 352 l 1
 480 352 l 1
 512 352 l 1
 544 352 l 1
 576 352 l 1
 576 320 l 1
 608 320 l 1
 608 288 l 1
 576 288 l 1
 576 256 l 1
 544 256 l 1
 512 256 l 1
 480 256 l 1
 448 256 l 1
 416 256 l 1
 384 256 l 1
 352 256 l 1
 320 256 l 1
 288 256 l 1
 256 256 l 1
 224 256 l 1
 192 256 l 1
 160 256 l 1
 128 256 l 1
 96 256 l 1
96 384 m 1
 96 416 l 1
 64 416 l 1
 64 448 l 1
 96 448 l 1
 96 480 l 1
 128 480 l 1
 160 480 l 1
 192 480 l 1
 192 448 l 1
 224 448 l 1
 224 416 l 1
 192 416 l 1
 192 384 l 1
 160 384 l 1
 128 384 l 1
 96 384 l 1
384 384 m 1
 384 416 l 1
 352 416 l 1
 352 448 l 1
 384 448 l 1
 384 480 l 1
 416 480 l 1
 448 480 l 1
 480 480 l 1
 480 448 l 1
 512 448 l 1
 512 416 l 1
 480 416 l 1
 480 384 l 1
 448 384 l 1
 416 384 l 1
 384 384 l 1
192 512 m 1
 192 544 l 1
 160 544 l 1
 160 576 l 1
 192 576 l 1
 192 608 l 1
 224 608 l 1
 256 608 l 1
 288 608 l 1
 288 576 l 1
 320 576 l 1
 320 544 l 1
 288 544 l 1
 288 512 l 1
 256 512 l 1
 224 512 l 1
 192 512 l 1
384 512 m 1
 384 544 l 1
 352 544 l 1
 352 576 l 1
 384 576 l 1
 384 608 l 1
 416 608 l 1
 448 608 l 1
 480 608 l 1
 480 576 l 1
 512 576 l 1
 512 544 l 1
 480 544 l 1
 480 512 l 1
 448 512 l 1
 416 512 l 1
 384 512 l 1
288 640 m 1
 288 672 l 1
 256 672 l 1
 256 704 l 1
 288 704 l 1
 288 736 l 1
 320 736 l 1
 352 736 l 1
 384 736 l 1
 416 736 l 1
 448 736 l 1
 480 736 l 1
 480 704 l 1
 512 704 l 1
 512 672 l 1
 480 672 l 1
 480 640 l 1
 448 640 l 1
 416 640 l 1
 384 640 l 1
 352 640 l 1
 320 640 l 1
 288 640 l 1
384 768 m 1
 384 800 l 1
 352 800 l 1
 352 832 l 1
 384 832 l 1
 384 864 l 1
 416 864 l 1
 448 864 l 1
 480 864 l 1
 480 832 l 1
 512 832 l 1
 512 800 l 1
 480 800 l 1
 480 768 l 1
 448 768 l 1
 416 768 l 1
 384 768 l 1
EndSplineSet
EndChar

StartChar: five
Encoding: 53 53 9
Width: 630
VWidth: 0
Flags: HW
LayerCount: 2
Back
Fore
SplineSet
192 0 m 1
 192 32 l 1
 160 32 l 1
 160 64 l 1
 192 64 l 1
 192 96 l 1
 224 96 l 1
 256 96 l 1
 288 96 l 1
 320 96 l 1
 352 96 l 1
 384 96 l 1
 416 96 l 1
 448 96 l 1
 480 96 l 1
 480 64 l 1
 512 64 l 1
 512 32 l 1
 480 32 l 1
 480 0 l 1
 448 0 l 1
 416 0 l 1
 384 0 l 1
 352 0 l 1
 320 0 l 1
 288 0 l 1
 256 0 l 1
 224 0 l 1
 192 0 l 1
96 128 m 1
 96 160 l 1
 64 160 l 1
 64 192 l 1
 96 192 l 1
 96 224 l 1
 128 224 l 1
 160 224 l 1
 192 224 l 1
 192 192 l 1
 224 192 l 1
 224 160 l 1
 192 160 l 1
 192 128 l 1
 160 128 l 1
 128 128 l 1
 96 128 l 1
480 128 m 1
 480 160 l 1
 448 160 l 1
 448 192 l 1
 480 192 l 1
 480 224 l 1
 512 224 l 1
 544 224 l 1
 576 224 l 1
 576 192 l 1
 608 192 l 1
 608 160 l 1
 576 160 l 1
 576 128 l 1
 544 128 l 1
 512 128 l 1
 480 128 l 1
480 256 m 1
 480 288 l 1
 448 288 l 1
 448 320 l 1
 480 320 l 1
 480 352 l 1
 512 352 l 1
 544 352 l 1
 576 352 l 1
 576 320 l 1
 608 320 l 1
 608 288 l 1
 576 288 l 1
 576 256 l 1
 544 256 l 1
 512 256 l 1
 480 256 l 1
480 384 m 1
 480 416 l 1
 448 416 l 1
 448 448 l 1
 480 448 l 1
 480 480 l 1
 512 480 l 1
 544 480 l 1
 576 480 l 1
 576 448 l 1
 608 448 l 1
 608 416 l 1
 576 416 l 1
 576 384 l 1
 544 384 l 1
 512 384 l 1
 480 384 l 1
96 512 m 1
 96 544 l 1
 64 544 l 1
 64 576 l 1
 96 576 l 1
 96 608 l 1
 128 608 l 1
 160 608 l 1
 192 608 l 1
 224 608 l 1
 256 608 l 1
 288 608 l 1
 320 608 l 1
 352 608 l 1
 384 608 l 1
 416 608 l 1
 448 608 l 1
 480 608 l 1
 480 576 l 1
 512 576 l 1
 512 544 l 1
 480 544 l 1
 480 512 l 1
 448 512 l 1
 416 512 l 1
 384 512 l 1
 352 512 l 1
 320 512 l 1
 288 512 l 1
 256 512 l 1
 224 512 l 1
 192 512 l 1
 160 512 l 1
 128 512 l 1
 96 512 l 1
96 640 m 1
 96 672 l 1
 64 672 l 1
 64 704 l 1
 96 704 l 1
 96 736 l 1
 128 736 l 1
 160 736 l 1
 192 736 l 1
 192 704 l 1
 224 704 l 1
 224 672 l 1
 192 672 l 1
 192 640 l 1
 160 640 l 1
 128 640 l 1
 96 640 l 1
96 768 m 1
 96 800 l 1
 64 800 l 1
 64 832 l 1
 96 832 l 1
 96 864 l 1
 128 864 l 1
 160 864 l 1
 192 864 l 1
 224 864 l 1
 256 864 l 1
 288 864 l 1
 320 864 l 1
 352 864 l 1
 384 864 l 1
 416 864 l 1
 448 864 l 1
 480 864 l 1
 512 864 l 1
 544 864 l 1
 576 864 l 1
 576 832 l 1
 608 832 l 1
 608 800 l 1
 576 800 l 1
 576 768 l 1
 544 768 l 1
 512 768 l 1
 480 768 l 1
 448 768 l 1
 416 768 l 1
 384 768 l 1
 352 768 l 1
 320 768 l 1
 288 768 l 1
 256 768 l 1
 224 768 l 1
 192 768 l 1
 160 768 l 1
 128 768 l 1
 96 768 l 1
EndSplineSet
EndChar

StartChar: six
Encoding: 54 54 10
Width: 630
VWidth: 0
Flags: HW
LayerCount: 2
Back
Fore
SplineSet
192 0 m 1
 192 32 l 1
 160 32 l 1
 160 64 l 1
 192 64 l 1
 192 96 l 1
 224 96 l 1
 256 96 l 1
 288 96 l 1
 320 96 l 1
 352 96 l 1
 384 96 l 1
 416 96 l 1
 448 96 l 1
 480 96 l 1
 480 64 l 1
 512 64 l 1
 512 32 l 1
 480 32 l 1
 480 0 l 1
 448 0 l 1
 416 0 l 1
 384 0 l 1
 352 0 l 1
 320 0 l 1
 288 0 l 1
 256 0 l 1
 224 0 l 1
 192 0 l 1
96 128 m 1
 96 160 l 1
 64 160 l 1
 64 192 l 1
 96 192 l 1
 96 224 l 1
 128 224 l 1
 160 224 l 1
 192 224 l 1
 192 192 l 1
 224 192 l 1
 224 160 l 1
 192 160 l 1
 192 128 l 1
 160 128 l 1
 128 128 l 1
 96 128 l 1
480 128 m 1
 480 160 l 1
 448 160 l 1
 448 192 l 1
 480 192 l 1
 480 224 l 1
 512 224 l 1
 544 224 l 1
 576 224 l 1
 576 192 l 1
 608 192 l 1
 608 160 l 1
 576 160 l 1
 576 128 l 1
 544 128 l 1
 512 128 l 1
 480 128 l 1
96 256 m 1
 96 288 l 1
 64 288 l 1
 64 320 l 1
 96 320 l 1
 96 352 l 1
 128 352 l 1
 160 352 l 1
 192 352 l 1
 192 320 l 1
 224 320 l 1
 224 288 l 1
 192 288 l 1
 192 256 l 1
 160 256 l 1
 128 256 l 1
 96 256 l 1
480 256 m 1
 480 288 l 1
 448 288 l 1
 448 320 l 1
 480 320 l 1
 480 352 l 1
 512 352 l 1
 544 352 l 1
 576 352 l 1
 576 320 l 1
 608 320 l 1
 608 288 l 1
 576 288 l 1
 576 256 l 1
 544 256 l 1
 512 256 l 1
 480 256 l 1
96 384 m 1
 96 416 l 1
 64 416 l 1
 64 448 l 1
 96 448 l 1
 96 480 l 1
 128 480 l 1
 160 480 l 1
 192 480 l 1
 224 480 l 1
 256 480 l 1
 288 480 l 1
 320 480 l 1
 352 480 l 1
 384 480 l 1
 416 480 l 1
 448 480 l 1
 480 480 l 1
 480 448 l 1
 512 448 l 1
 512 416 l 1
 480 416 l 1
 480 384 l 1
 448 384 l 1
 416 384 l 1
 384 384 l 1
 352 384 l 1
 320 384 l 1
 288 384 l 1
 256 384 l 1
 224 384 l 1
 192 384 l 1
 160 384 l 1
 128 384 l 1
 96 384 l 1
96 512 m 1
 96 544 l 1
 64 544 l 1
 64 576 l 1
 96 576 l 1
 96 608 l 1
 128 608 l 1
 160 608 l 1
 192 608 l 1
 192 576 l 1
 224 576 l 1
 224 544 l 1
 192 544 l 1
 192 512 l 1
 160 512 l 1
 128 512 l 1
 96 512 l 1
192 640 m 1
 192 672 l 1
 160 672 l 1
 160 704 l 1
 192 704 l 1
 192 736 l 1
 224 736 l 1
 256 736 l 1
 288 736 l 1
 288 704 l 1
 320 704 l 1
 320 672 l 1
 288 672 l 1
 288 640 l 1
 256 640 l 1
 224 640 l 1
 192 640 l 1
288 768 m 1
 288 800 l 1
 256 800 l 1
 256 832 l 1
 288 832 l 1
 288 864 l 1
 320 864 l 1
 352 864 l 1
 384 864 l 1
 416 864 l 1
 448 864 l 1
 480 864 l 1
 512 864 l 1
 544 864 l 1
 576 864 l 1
 576 832 l 1
 608 832 l 1
 608 800 l 1
 576 800 l 1
 576 768 l 1
 544 768 l 1
 512 768 l 1
 480 768 l 1
 448 768 l 1
 416 768 l 1
 384 768 l 1
 352 768 l 1
 320 768 l 1
 288 768 l 1
EndSplineSet
EndChar

StartChar: seven
Encoding: 55 55 11
Width: 630
VWidth: 0
Flags: HW
LayerCount: 2
Back
Fore
SplineSet
192 0 m 1
 192 32 l 1
 160 32 l 1
 160 64 l 1
 192 64 l 1
 192 96 l 1
 224 96 l 1
 256 96 l 1
 288 96 l 1
 288 64 l 1
 320 64 l 1
 320 32 l 1
 288 32 l 1
 288 0 l 1
 256 0 l 1
 224 0 l 1
 192 0 l 1
192 128 m 1
 192 160 l 1
 160 160 l 1
 160 192 l 1
 192 192 l 1
 192 224 l 1
 224 224 l 1
 256 224 l 1
 288 224 l 1
 288 192 l 1
 320 192 l 1
 320 160 l 1
 288 160 l 1
 288 128 l 1
 256 128 l 1
 224 128 l 1
 192 128 l 1
192 256 m 1
 192 288 l 1
 160 288 l 1
 160 320 l 1
 192 320 l 1
 192 352 l 1
 224 352 l 1
 256 352 l 1
 288 352 l 1
 288 320 l 1
 320 320 l 1
 320 288 l 1
 288 288 l 1
 288 256 l 1
 256 256 l 1
 224 256 l 1
 192 256 l 1
288 384 m 1
 288 416 l 1
 256 416 l 1
 256 448 l 1
 288 448 l 1
 288 480 l 1
 320 480 l 1
 352 480 l 1
 384 480 l 1
 384 448 l 1
 416 448 l 1
 416 416 l 1
 384 416 l 1
 384 384 l 1
 352 384 l 1
 320 384 l 1
 288 384 l 1
384 512 m 1
 384 544 l 1
 352 544 l 1
 352 576 l 1
 384 576 l 1
 384 608 l 1
 416 608 l 1
 448 608 l 1
 480 608 l 1
 480 576 l 1
 512 576 l 1
 512 544 l 1
 480 544 l 1
 480 512 l 1
 448 512 l 1
 416 512 l 1
 384 512 l 1
480 640 m 1
 480 672 l 1
 448 672 l 1
 448 704 l 1
 480 704 l 1
 480 736 l 1
 512 736 l 1
 544 736 l 1
 576 736 l 1
 576 704 l 1
 608 704 l 1
 608 672 l 1
 576 672 l 1
 576 640 l 1
 544 640 l 1
 512 640 l 1
 480 640 l 1
96 768 m 1
 96 800 l 1
 64 800 l 1
 64 832 l 1
 96 832 l 1
 96 864 l 1
 128 864 l 1
 160 864 l 1
 192 864 l 1
 224 864 l 1
 256 864 l 1
 288 864 l 1
 320 864 l 1
 352 864 l 1
 384 864 l 1
 416 864 l 1
 448 864 l 1
 480 864 l 1
 512 864 l 1
 544 864 l 1
 576 864 l 1
 576 832 l 1
 608 832 l 1
 608 800 l 1
 576 800 l 1
 576 768 l 1
 544 768 l 1
 512 768 l 1
 480 768 l 1
 448 768 l 1
 416 768 l 1
 384 768 l 1
 352 768 l 1
 320 768 l 1
 288 768 l 1
 256 768 l 1
 224 768 l 1
 192 768 l 1
 160 768 l 1
 128 768 l 1
 96 768 l 1
EndSplineSet
EndChar

StartChar: eight
Encoding: 56 56 12
Width: 630
VWidth: 0
Flags: HW
LayerCount: 2
Back
Fore
SplineSet
192 0 m 1
 192 32 l 1
 160 32 l 1
 160 64 l 1
 192 64 l 1
 192 96 l 1
 224 96 l 1
 256 96 l 1
 288 96 l 1
 320 96 l 1
 352 96 l 1
 384 96 l 1
 416 96 l 1
 448 96 l 1
 480 96 l 1
 480 64 l 1
 512 64 l 1
 512 32 l 1
 480 32 l 1
 480 0 l 1
 448 0 l 1
 416 0 l 1
 384 0 l 1
 352 0 l 1
 320 0 l 1
 288 0 l 1
 256 0 l 1
 224 0 l 1
 192 0 l 1
96 128 m 1
 96 160 l 1
 64 160 l 1
 64 192 l 1
 96 192 l 1
 96 224 l 1
 128 224 l 1
 160 224 l 1
 192 224 l 1
 192 192 l 1
 224 192 l 1
 224 160 l 1
 192 160 l 1
 192 128 l 1
 160 128 l 1
 128 128 l 1
 96 128 l 1
480 128 m 1
 480 160 l 1
 448 160 l 1
 448 192 l 1
 480 192 l 1
 480 224 l 1
 512 224 l 1
 544 224 l 1
 576 224 l 1
 576 192 l 1
 608 192 l 1
 608 160 l 1
 576 160 l 1
 576 128 l 1
 544 128 l 1
 512 128 l 1
 480 128 l 1
96 256 m 1
 96 288 l 1
 64 288 l 1
 64 320 l 1
 96 320 l 1
 96 352 l 1
 128 352 l 1
 160 352 l 1
 192 352 l 1
 192 320 l 1
 224 320 l 1
 224 288 l 1
 192 288 l 1
 192 256 l 1
 160 256 l 1
 128 256 l 1
 96 256 l 1
480 256 m 1
 480 288 l 1
 448 288 l 1
 448 320 l 1
 480 320 l 1
 480 352 l 1
 512 352 l 1
 544 352 l 1
 576 352 l 1
 576 320 l 1
 608 320 l 1
 608 288 l 1
 576 288 l 1
 576 256 l 1
 544 256 l 1
 512 256 l 1
 480 256 l 1
192 384 m 1
 192 416 l 1
 160 416 l 1
 160 448 l 1
 192 448 l 1
 192 480 l 1
 224 480 l 1
 256 480 l 1
 288 480 l 1
 320 480 l 1
 352 480 l 1
 384 480 l 1
 416 480 l 1
 448 480 l 1
 480 480 l 1
 480 448 l 1
 512 448 l 1
 512 416 l 1
 480 416 l 1
 480 384 l 1
 448 384 l 1
 416 384 l 1
 384 384 l 1
 352 384 l 1
 320 384 l 1
 288 384 l 1
 256 384 l 1
 224 384 l 1
 192 384 l 1
96 512 m 1
 96 544 l 1
 64 544 l 1
 64 576 l 1
 96 576 l 1
 96 608 l 1
 128 608 l 1
 160 608 l 1
 192 608 l 1
 192 576 l 1
 224 576 l 1
 224 544 l 1
 192 544 l 1
 192 512 l 1
 160 512 l 1
 128 512 l 1
 96 512 l 1
480 512 m 1
 480 544 l 1
 448 544 l 1
 448 576 l 1
 480 576 l 1
 480 608 l 1
 512 608 l 1
 544 608 l 1
 576 608 l 1
 576 576 l 1
 608 576 l 1
 608 544 l 1
 576 544 l 1
 576 512 l 1
 544 512 l 1
 512 512 l 1
 480 512 l 1
96 640 m 1
 96 672 l 1
 64 672 l 1
 64 704 l 1
 96 704 l 1
 96 736 l 1
 128 736 l 1
 160 736 l 1
 192 736 l 1
 192 704 l 1
 224 704 l 1
 224 672 l 1
 192 672 l 1
 192 640 l 1
 160 640 l 1
 128 640 l 1
 96 640 l 1
480 640 m 1
 480 672 l 1
 448 672 l 1
 448 704 l 1
 480 704 l 1
 480 736 l 1
 512 736 l 1
 544 736 l 1
 576 736 l 1
 576 704 l 1
 608 704 l 1
 608 672 l 1
 576 672 l 1
 576 640 l 1
 544 640 l 1
 512 640 l 1
 480 640 l 1
192 768 m 1
 192 800 l 1
 160 800 l 1
 160 832 l 1
 192 832 l 1
 192 864 l 1
 224 864 l 1
 256 864 l 1
 288 864 l 1
 320 864 l 1
 352 864 l 1
 384 864 l 1
 416 864 l 1
 448 864 l 1
 480 864 l 1
 480 832 l 1
 512 832 l 1
 512 800 l 1
 480 800 l 1
 480 768 l 1
 448 768 l 1
 416 768 l 1
 384 768 l 1
 352 768 l 1
 320 768 l 1
 288 768 l 1
 256 768 l 1
 224 768 l 1
 192 768 l 1
EndSplineSet
EndChar

StartChar: nine
Encoding: 57 57 13
Width: 630
VWidth: 0
Flags: HW
LayerCount: 2
Back
Fore
SplineSet
96 0 m 1
 96 32 l 1
 64 32 l 1
 64 64 l 1
 96 64 l 1
 96 96 l 1
 128 96 l 1
 160 96 l 1
 192 96 l 1
 224 96 l 1
 256 96 l 1
 288 96 l 1
 320 96 l 1
 352 96 l 1
 384 96 l 1
 384 64 l 1
 416 64 l 1
 416 32 l 1
 384 32 l 1
 384 0 l 1
 352 0 l 1
 320 0 l 1
 288 0 l 1
 256 0 l 1
 224 0 l 1
 192 0 l 1
 160 0 l 1
 128 0 l 1
 96 0 l 1
384 128 m 1
 384 160 l 1
 352 160 l 1
 352 192 l 1
 384 192 l 1
 384 224 l 1
 416 224 l 1
 448 224 l 1
 480 224 l 1
 480 192 l 1
 512 192 l 1
 512 160 l 1
 480 160 l 1
 480 128 l 1
 448 128 l 1
 416 128 l 1
 384 128 l 1
480 256 m 1
 480 288 l 1
 448 288 l 1
 448 320 l 1
 480 320 l 1
 480 352 l 1
 512 352 l 1
 544 352 l 1
 576 352 l 1
 576 320 l 1
 608 320 l 1
 608 288 l 1
 576 288 l 1
 576 256 l 1
 544 256 l 1
 512 256 l 1
 480 256 l 1
192 384 m 1
 192 416 l 1
 160 416 l 1
 160 448 l 1
 192 448 l 1
 192 480 l 1
 224 480 l 1
 256 480 l 1
 288 480 l 1
 320 480 l 1
 352 480 l 1
 384 480 l 1
 416 480 l 1
 448 480 l 1
 480 480 l 1
 512 480 l 1
 544 480 l 1
 576 480 l 1
 576 448 l 1
 608 448 l 1
 608 416 l 1
 576 416 l 1
 576 384 l 1
 544 384 l 1
 512 384 l 1
 480 384 l 1
 448 384 l 1
 416 384 l 1
 384 384 l 1
 352 384 l 1
 320 384 l 1
 288 384 l 1
 256 384 l 1
 224 384 l 1
 192 384 l 1
96 512 m 1
 96 544 l 1
 64 544 l 1
 64 576 l 1
 96 576 l 1
 96 608 l 1
 128 608 l 1
 160 608 l 1
 192 608 l 1
 192 576 l 1
 224 576 l 1
 224 544 l 1
 192 544 l 1
 192 512 l 1
 160 512 l 1
 128 512 l 1
 96 512 l 1
480 512 m 1
 480 544 l 1
 448 544 l 1
 448 576 l 1
 480 576 l 1
 480 608 l 1
 512 608 l 1
 544 608 l 1
 576 608 l 1
 576 576 l 1
 608 576 l 1
 608 544 l 1
 576 544 l 1
 576 512 l 1
 544 512 l 1
 512 512 l 1
 480 512 l 1
96 640 m 1
 96 672 l 1
 64 672 l 1
 64 704 l 1
 96 704 l 1
 96 736 l 1
 128 736 l 1
 160 736 l 1
 192 736 l 1
 192 704 l 1
 224 704 l 1
 224 672 l 1
 192 672 l 1
 192 640 l 1
 160 640 l 1
 128 640 l 1
 96 640 l 1
480 640 m 1
 480 672 l 1
 448 672 l 1
 448 704 l 1
 480 704 l 1
 480 736 l 1
 512 736 l 1
 544 736 l 1
 576 736 l 1
 576 704 l 1
 608 704 l 1
 608 672 l 1
 576 672 l 1
 576 640 l 1
 544 640 l 1
 512 640 l 1
 480 640 l 1
192 768 m 1
 192 800 l 1
 160 800 l 1
 160 832 l 1
 192 832 l 1
 192 864 l 1
 224 864 l 1
 256 864 l 1
 288 864 l 1
 320 864 l 1
 352 864 l 1
 384 864 l 1
 416 864 l 1
 448 864 l 1
 480 864 l 1
 480 832 l 1
 512 832 l 1
 512 800 l 1
 480 800 l 1
 480 768 l 1
 448 768 l 1
 416 768 l 1
 384 768 l 1
 352 768 l 1
 320 768 l 1
 288 768 l 1
 256 768 l 1
 224 768 l 1
 192 768 l 1
EndSplineSet
EndChar

StartChar: colon
Encoding: 58 58 14
Width: 630
VWidth: 0
Flags: HW
LayerCount: 2
Back
Fore
SplineSet
96 256 m 1
 96 288 l 1
 64 288 l 1
 64 320 l 1
 96 320 l 1
 96 352 l 1
 128 352 l 1
 160 352 l 1
 192 352 l 1
 192 320 l 1
 224 320 l 1
 224 288 l 1
 192 288 l 1
 192 256 l 1
 160 256 l 1
 128 256 l 1
 96 256 l 1
96 512 m 1
 96 544 l 1
 64 544 l 1
 64 576 l 1
 96 576 l 1
 96 608 l 1
 128 608 l 1
 160 608 l 1
 192 608 l 1
 192 576 l 1
 224 576 l 1
 224 544 l 1
 192 544 l 1
 192 512 l 1
 160 512 l 1
 128 512 l 1
 96 512 l 1
EndSplineSet
EndChar

StartChar: A
Encoding: 65 65 15
Width: 630
VWidth: 0
Flags: HW
LayerCount: 2
Back
Fore
SplineSet
96 0 m 1
 96 32 l 1
 64 32 l 1
 64 64 l 1
 96 64 l 1
 96 96 l 1
 128 96 l 1
 160 96 l 1
 192 96 l 1
 192 64 l 1
 224 64 l 1
 224 32 l 1
 192 32 l 1
 192 0 l 1
 160 0 l 1
 128 0 l 1
 96 0 l 1
480 0 m 1
 480 32 l 1
 448 32 l 1
 448 64 l 1
 480 64 l 1
 480 96 l 1
 512 96 l 1
 544 96 l 1
 576 96 l 1
 576 64 l 1
 608 64 l 1
 608 32 l 1
 576 32 l 1
 576 0 l 1
 544 0 l 1
 512 0 l 1
 480 0 l 1
96 128 m 1
 96 160 l 1
 64 160 l 1
 64 192 l 1
 96 192 l 1
 96 224 l 1
 128 224 l 1
 160 224 l 1
 192 224 l 1
 192 192 l 1
 224 192 l 1
 224 160 l 1
 192 160 l 1
 192 128 l 1
 160 128 l 1
 128 128 l 1
 96 128 l 1
480 128 m 1
 480 160 l 1
 448 160 l 1
 448 192 l 1
 480 192 l 1
 480 224 l 1
 512 224 l 1
 544 224 l 1
 576 224 l 1
 576 192 l 1
 608 192 l 1
 608 160 l 1
 576 160 l 1
 576 128 l 1
 544 128 l 1
 512 128 l 1
 480 128 l 1
96 256 m 1
 96 288 l 1
 64 288 l 1
 64 320 l 1
 96 320 l 1
 96 352 l 1
 128 352 l 1
 160 352 l 1
 192 352 l 1
 224 352 l 1
 256 352 l 1
 288 352 l 1
 320 352 l 1
 352 352 l 1
 384 352 l 1
 416 352 l 1
 448 352 l 1
 480 352 l 1
 512 352 l 1
 544 352 l 1
 576 352 l 1
 576 320 l 1
 608 320 l 1
 608 288 l 1
 576 288 l 1
 576 256 l 1
 544 256 l 1
 512 256 l 1
 480 256 l 1
 448 256 l 1
 416 256 l 1
 384 256 l 1
 352 256 l 1
 320 256 l 1
 288 256 l 1
 256 256 l 1
 224 256 l 1
 192 256 l 1
 160 256 l 1
 128 256 l 1
 96 256 l 1
96 384 m 1
 96 416 l 1
 64 416 l 1
 64 448 l 1
 96 448 l 1
 96 480 l 1
 128 480 l 1
 160 480 l 1
 192 480 l 1
 192 448 l 1
 224 448 l 1
 224 416 l 1
 192 416 l 1
 192 384 l 1
 160 384 l 1
 128 384 l 1
 96 384 l 1
480 384 m 1
 480 416 l 1
 448 416 l 1
 448 448 l 1
 480 448 l 1
 480 480 l 1
 512 480 l 1
 544 480 l 1
 576 480 l 1
 576 448 l 1
 608 448 l 1
 608 416 l 1
 576 416 l 1
 576 384 l 1
 544 384 l 1
 512 384 l 1
 480 384 l 1
96 512 m 1
 96 544 l 1
 64 544 l 1
 64 576 l 1
 96 576 l 1
 96 608 l 1
 128 608 l 1
 160 608 l 1
 192 608 l 1
 192 576 l 1
 224 576 l 1
 224 544 l 1
 192 544 l 1
 192 512 l 1
 160 512 l 1
 128 512 l 1
 96 512 l 1
480 512 m 1
 480 544 l 1
 448 544 l 1
 448 576 l 1
 480 576 l 1
 480 608 l 1
 512 608 l 1
 544 608 l 1
 576 608 l 1
 576 576 l 1
 608 576 l 1
 608 544 l 1
 576 544 l 1
 576 512 l 1
 544 512 l 1
 512 512 l 1
 480 512 l 1
192 640 m 1
 192 672 l 1
 160 672 l 1
 160 704 l 1
 192 704 l 1
 192 736 l 1
 224 736 l 1
 256 736 l 1
 288 736 l 1
 288 704 l 1
 320 704 l 1
 320 672 l 1
 288 672 l 1
 288 640 l 1
 256 640 l 1
 224 640 l 1
 192 640 l 1
384 640 m 1
 384 672 l 1
 352 672 l 1
 352 704 l 1
 384 704 l 1
 384 736 l 1
 416 736 l 1
 448 736 l 1
 480 736 l 1
 480 704 l 1
 512 704 l 1
 512 672 l 1
 480 672 l 1
 480 640 l 1
 448 640 l 1
 416 640 l 1
 384 640 l 1
288 768 m 1
 288 800 l 1
 256 800 l 1
 256 832 l 1
 288 832 l 1
 288 864 l 1
 320 864 l 1
 352 864 l 1
 384 864 l 1
 384 832 l 1
 416 832 l 1
 416 800 l 1
 384 800 l 1
 384 768 l 1
 352 768 l 1
 320 768 l 1
 288 768 l 1
EndSplineSet
EndChar

StartChar: B
Encoding: 66 66 16
Width: 630
VWidth: 0
Flags: HW
LayerCount: 2
Back
Fore
SplineSet
96 0 m 1
 96 32 l 1
 64 32 l 1
 64 64 l 1
 96 64 l 1
 96 96 l 1
 128 96 l 1
 160 96 l 1
 192 96 l 1
 224 96 l 1
 256 96 l 1
 288 96 l 1
 320 96 l 1
 352 96 l 1
 384 96 l 1
 416 96 l 1
 448 96 l 1
 480 96 l 1
 480 64 l 1
 512 64 l 1
 512 32 l 1
 480 32 l 1
 480 0 l 1
 448 0 l 1
 416 0 l 1
 384 0 l 1
 352 0 l 1
 320 0 l 1
 288 0 l 1
 256 0 l 1
 224 0 l 1
 192 0 l 1
 160 0 l 1
 128 0 l 1
 96 0 l 1
96 128 m 1
 96 160 l 1
 64 160 l 1
 64 192 l 1
 96 192 l 1
 96 224 l 1
 128 224 l 1
 160 224 l 1
 192 224 l 1
 192 192 l 1
 224 192 l 1
 224 160 l 1
 192 160 l 1
 192 128 l 1
 160 128 l 1
 128 128 l 1
 96 128 l 1
480 128 m 1
 480 160 l 1
 448 160 l 1
 448 192 l 1
 480 192 l 1
 480 224 l 1
 512 224 l 1
 544 224 l 1
 576 224 l 1
 576 192 l 1
 608 192 l 1
 608 160 l 1
 576 160 l 1
 576 128 l 1
 544 128 l 1
 512 128 l 1
 480 128 l 1
96 256 m 1
 96 288 l 1
 64 288 l 1
 64 320 l 1
 96 320 l 1
 96 352 l 1
 128 352 l 1
 160 352 l 1
 192 352 l 1
 192 320 l 1
 224 320 l 1
 224 288 l 1
 192 288 l 1
 192 256 l 1
 160 256 l 1
 128 256 l 1
 96 256 l 1
480 256 m 1
 480 288 l 1
 448 288 l 1
 448 320 l 1
 480 320 l 1
 480 352 l 1
 512 352 l 1
 544 352 l 1
 576 352 l 1
 576 320 l 1
 608 320 l 1
 608 288 l 1
 576 288 l 1
 576 256 l 1
 544 256 l 1
 512 256 l 1
 480 256 l 1
96 384 m 1
 96 416 l 1
 64 416 l 1
 64 448 l 1
 96 448 l 1
 96 480 l 1
 128 480 l 1
 160 480 l 1
 192 480 l 1
 224 480 l 1
 256 480 l 1
 288 480 l 1
 320 480 l 1
 352 480 l 1
 384 480 l 1
 416 480 l 1
 448 480 l 1
 480 480 l 1
 480 448 l 1
 512 448 l 1
 512 416 l 1
 480 416 l 1
 480 384 l 1
 448 384 l 1
 416 384 l 1
 384 384 l 1
 352 384 l 1
 320 384 l 1
 288 384 l 1
 256 384 l 1
 224 384 l 1
 192 384 l 1
 160 384 l 1
 128 384 l 1
 96 384 l 1
96 512 m 1
 96 544 l 1
 64 544 l 1
 64 576 l 1
 96 576 l 1
 96 608 l 1
 128 608 l 1
 160 608 l 1
 192 608 l 1
 192 576 l 1
 224 576 l 1
 224 544 l 1
 192 544 l 1
 192 512 l 1
 160 512 l 1
 128 512 l 1
 96 512 l 1
480 512 m 1
 480 544 l 1
 448 544 l 1
 448 576 l 1
 480 576 l 1
 480 608 l 1
 512 608 l 1
 544 608 l 1
 576 608 l 1
 576 576 l 1
 608 576 l 1
 608 544 l 1
 576 544 l 1
 576 512 l 1
 544 512 l 1
 512 512 l 1
 480 512 l 1
96 640 m 1
 96 672 l 1
 64 672 l 1
 64 704 l 1
 96 704 l 1
 96 736 l 1
 128 736 l 1
 160 736 l 1
 192 736 l 1
 192 704 l 1
 224 704 l 1
 224 672 l 1
 192 672 l 1
 192 640 l 1
 160 640 l 1
 128 640 l 1
 96 640 l 1
480 640 m 1
 480 672 l 1
 448 672 l 1
 448 704 l 1
 480 704 l 1
 480 736 l 1
 512 736 l 1
 544 736 l 1
 576 736 l 1
 576 704 l 1
 608 704 l 1
 608 672 l 1
 576 672 l 1
 576 640 l 1
 544 640 l 1
 512 640 l 1
 480 640 l 1
96 768 m 1
 96 800 l 1
 64 800 l 1
 64 832 l 1
 96 832 l 1
 96 864 l 1
 128 864 l 1
 160 864 l 1
 192 864 l 1
 224 864 l 1
 256 864 l 1
 288 864 l 1
 320 864 l 1
 352 864 l 1
 384 864 l 1
 416 864 l 1
 448 864 l 1
 480 864 l 1
 480 832 l 1
 512 832 l 1
 512 800 l 1
 480 800 l 1
 480 768 l 1
 448 768 l 1
 416 768 l 1
 384 768 l 1
 352 768 l 1
 320 768 l 1
 288 768 l 1
 256 768 l 1
 224 768 l 1
 192 768 l 1
 160 768 l 1
 128 768 l 1
 96 768 l 1
EndSplineSet
EndChar

StartChar: C
Encoding: 67 67 17
Width: 630
VWidth: 0
Flags: HW
LayerCount: 2
Back
Fore
SplineSet
192 0 m 1
 192 32 l 1
 160 32 l 1
 160 64 l 1
 192 64 l 1
 192 96 l 1
 224 96 l 1
 256 96 l 1
 288 96 l 1
 320 96 l 1
 352 96 l 1
 384 96 l 1
 416 96 l 1
 448 96 l 1
 480 96 l 1
 480 64 l 1
 512 64 l 1
 512 32 l 1
 480 32 l 1
 480 0 l 1
 448 0 l 1
 416 0 l 1
 384 0 l 1
 352 0 l 1
 320 0 l 1
 288 0 l 1
 256 0 l 1
 224 0 l 1
 192 0 l 1
96 128 m 1
 96 160 l 1
 64 160 l 1
 64 192 l 1
 96 192 l 1
 96 224 l 1
 128 224 l 1
 160 224 l 1
 192 224 l 1
 192 192 l 1
 224 192 l 1
 224 160 l 1
 192 160 l 1
 192 128 l 1
 160 128 l 1
 128 128 l 1
 96 128 l 1
480 128 m 1
 480 160 l 1
 448 160 l 1
 448 192 l 1
 480 192 l 1
 480 224 l 1
 512 224 l 1
 544 224 l 1
 576 224 l 1
 576 192 l 1
 608 192 l 1
 608 160 l 1
 576 160 l 1
 576 128 l 1
 544 128 l 1
 512 128 l 1
 480 128 l 1
96 256 m 1
 96 288 l 1
 64 288 l 1
 64 320 l 1
 96 320 l 1
 96 352 l 1
 128 352 l 1
 160 352 l 1
 192 352 l 1
 192 320 l 1
 224 320 l 1
 224 288 l 1
 192 288 l 1
 192 256 l 1
 160 256 l 1
 128 256 l 1
 96 256 l 1
96 384 m 1
 96 416 l 1
 64 416 l 1
 64 448 l 1
 96 448 l 1
 96 480 l 1
 128 480 l 1
 160 480 l 1
 192 480 l 1
 192 448 l 1
 224 448 l 1
 224 416 l 1
 192 416 l 1
 192 384 l 1
 160 384 l 1
 128 384 l 1
 96 384 l 1
96 512 m 1
 96 544 l 1
 64 544 l 1
 64 576 l 1
 96 576 l 1
 96 608 l 1
 128 608 l 1
 160 608 l 1
 192 608 l 1
 192 576 l 1
 224 576 l 1
 224 544 l 1
 192 544 l 1
 192 512 l 1
 160 512 l 1
 128 512 l 1
 96 512 l 1
96 640 m 1
 96 672 l 1
 64 672 l 1
 64 704 l 1
 96 704 l 1
 96 736 l 1
 128 736 l 1
 160 736 l 1
 192 736 l 1
 192 704 l 1
 224 704 l 1
 224 672 l 1
 192 672 l 1
 192 640 l 1
 160 640 l 1
 128 640 l 1
 96 640 l 1
480 640 m 1
 480 672 l 1
 448 672 l 1
 448 704 l 1
 480 704 l 1
 480 736 l 1
 512 736 l 1
 544 736 l 1
 576 736 l 1
 576 704 l 1
 608 704 l 1
 608 672 l 1
 576 672 l 1
 576 640 l 1
 544 640 l 1
 512 640 l 1
 480 640 l 1
192 768 m 1
 192 800 l 1
 160 800 l 1
 160 832 l 1
 192 832 l 1
 192 864 l 1
 224 864 l 1
 256 864 l 1
 288 864 l 1
 320 864 l 1
 352 864 l 1
 384 864 l 1
 416 864 l 1
 448 864 l 1
 480 864 l 1
 480 832 l 1
 512 832 l 1
 512 800 l 1
 480 800 l 1
 480 768 l 1
 448 768 l 1
 416 768 l 1
 384 768 l 1
 352 768 l 1
 320 768 l 1
 288 768 l 1
 256 768 l 1
 224 768 l 1
 192 768 l 1
EndSplineSet
EndChar

StartChar: D
Encoding: 68 68 18
Width: 630
VWidth: 0
Flags: HW
LayerCount: 2
Back
Fore
SplineSet
96 0 m 1
 96 32 l 1
 64 32 l 1
 64 64 l 1
 96 64 l 1
 96 96 l 1
 128 96 l 1
 160 96 l 1
 192 96 l 1
 224 96 l 1
 256 96 l 1
 288 96 l 1
 320 96 l 1
 352 96 l 1
 384 96 l 1
 416 96 l 1
 448 96 l 1
 480 96 l 1
 480 64 l 1
 512 64 l 1
 512 32 l 1
 480 32 l 1
 480 0 l 1
 448 0 l 1
 416 0 l 1
 384 0 l 1
 352 0 l 1
 320 0 l 1
 288 0 l 1
 256 0 l 1
 224 0 l 1
 192 0 l 1
 160 0 l 1
 128 0 l 1
 96 0 l 1
96 128 m 1
 96 160 l 1
 64 160 l 1
 64 192 l 1
 96 192 l 1
 96 224 l 1
 128 224 l 1
 160 224 l 1
 192 224 l 1
 192 192 l 1
 224 192 l 1
 224 160 l 1
 192 160 l 1
 192 128 l 1
 160 128 l 1
 128 128 l 1
 96 128 l 1
480 128 m 1
 480 160 l 1
 448 160 l 1
 448 192 l 1
 480 192 l 1
 480 224 l 1
 512 224 l 1
 544 224 l 1
 576 224 l 1
 576 192 l 1
 608 192 l 1
 608 160 l 1
 576 160 l 1
 576 128 l 1
 544 128 l 1
 512 128 l 1
 480 128 l 1
96 256 m 1
 96 288 l 1
 64 288 l 1
 64 320 l 1
 96 320 l 1
 96 352 l 1
 128 352 l 1
 160 352 l 1
 192 352 l 1
 192 320 l 1
 224 320 l 1
 224 288 l 1
 192 288 l 1
 192 256 l 1
 160 256 l 1
 128 256 l 1
 96 256 l 1
480 256 m 1
 480 288 l 1
 448 288 l 1
 448 320 l 1
 480 320 l 1
 480 352 l 1
 512 352 l 1
 544 352 l 1
 576 352 l 1
 576 320 l 1
 608 320 l 1
 608 288 l 1
 576 288 l 1
 576 256 l 1
 544 256 l 1
 512 256 l 1
 480 256 l 1
96 384 m 1
 96 416 l 1
 64 416 l 1
 64 448 l 1
 96 448 l 1
 96 480 l 1
 128 480 l 1
 160 480 l 1
 192 480 l 1
 192 448 l 1
 224 448 l 1
 224 416 l 1
 192 416 l 1
 192 384 l 1
 160 384 l 1
 128 384 l 1
 96 384 l 1
480 384 m 1
 480 416 l 1
 448 416 l 1
 448 448 l 1
 480 448 l 1
 480 480 l 1
 512 480 l 1
 544 480 l 1
 576 480 l 1
 576 448 l 1
 608 448 l 1
 608 416 l 1
 576 416 l 1
 576 384 l 1
 544 384 l 1
 512 384 l 1
 480 384 l 1
96 512 m 1
 96 544 l 1
 64 544 l 1
 64 576 l 1
 96 576 l 1
 96 608 l 1
 128 608 l 1
 160 608 l 1
 192 608 l 1
 192 576 l 1
 224 576 l 1
 224 544 l 1
 192 544 l 1
 192 512 l 1
 160 512 l 1
 128 512 l 1
 96 512 l 1
480 512 m 1
 480 544 l 1
 448 544 l 1
 448 576 l 1
 480 576 l 1
 480 608 l 1
 512 608 l 1
 544 608 l 1
 576 608 l 1
 576 576 l 1
 608 576 l 1
 608 544 l 1
 576 544 l 1
 576 512 l 1
 544 512 l 1
 512 512 l 1
 480 512 l 1
96 640 m 1
 96 672 l 1
 64 672 l 1
 64 704 l 1
 96 704 l 1
 96 736 l 1
 128 736 l 1
 160 736 l 1
 192 736 l 1
 192 704 l 1
 224 704 l 1
 224 672 l 1
 192 672 l 1
 192 640 l 1
 160 640 l 1
 128 640 l 1
 96 640 l 1
480 640 m 1
 480 672 l 1
 448 672 l 1
 448 704 l 1
 480 704 l 1
 480 736 l 1
 512 736 l 1
 544 736 l 1
 576 736 l 1
 576 704 l 1
 608 704 l 1
 608 672 l 1
 576 672 l 1
 576 640 l 1
 544 640 l 1
 512 640 l 1
 480 640 l 1
96 768 m 1
 96 800 l 1
 64 800 l 1
 64 832 l 1
 96 832 l 1
 96 864 l 1
 128 864 l 1
 160 864 l 1
 192 864 l 1
 224 864 l 1
 256 864 l 1
 288 864 l 1
 320 864 l 1
 352 864 l 1
 384 864 l 1
 416 864 l 1
 448 864 l 1
 480 864 l 1
 480 832 l 1
 512 832 l 1
 512 800 l 1
 480 800 l 1
 480 768 l 1
 448 768 l 1
 416 768 l 1
 384 768 l 1
 352 768 l 1
 320 768 l 1
 288 768 l 1
 256 768 l 1
 224 768 l 1
 192 768 l 1
 160 768 l 1
 128 768 l 1
 96 768 l 1
EndSplineSet
EndChar

StartChar: E
Encoding: 69 69 19
Width: 630
VWidth: 0
Flags: HW
LayerCount: 2
Back
Fore
SplineSet
96 0 m 1
 96 32 l 1
 64 32 l 1
 64 64 l 1
 96 64 l 1
 96 96 l 1
 128 96 l 1
 160 96 l 1
 192 96 l 1
 224 96 l 1
 256 96 l 1
 288 96 l 1
 320 96 l 1
 352 96 l 1
 384 96 l 1
 416 96 l 1
 448 96 l 1
 480 96 l 1
 512 96 l 1
 544 96 l 1
 576 96 l 1
 576 64 l 1
 608 64 l 1
 608 32 l 1
 576 32 l 1
 576 0 l 1
 544 0 l 1
 512 0 l 1
 480 0 l 1
 448 0 l 1
 416 0 l 1
 384 0 l 1
 352 0 l 1
 320 0 l 1
 288 0 l 1
 256 0 l 1
 224 0 l 1
 192 0 l 1
 160 0 l 1
 128 0 l 1
 96 0 l 1
96 128 m 1
 96 160 l 1
 64 160 l 1
 64 192 l 1
 96 192 l 1
 96 224 l 1
 128 224 l 1
 160 224 l 1
 192 224 l 1
 192 192 l 1
 224 192 l 1
 224 160 l 1
 192 160 l 1
 192 128 l 1
 160 128 l 1
 128 128 l 1
 96 128 l 1
96 256 m 1
 96 288 l 1
 64 288 l 1
 64 320 l 1
 96 320 l 1
 96 352 l 1
 128 352 l 1
 160 352 l 1
 192 352 l 1
 192 320 l 1
 224 320 l 1
 224 288 l 1
 192 288 l 1
 192 256 l 1
 160 256 l 1
 128 256 l 1
 96 256 l 1
96 384 m 1
 96 416 l 1
 64 416 l 1
 64 448 l 1
 96 448 l 1
 96 480 l 1
 128 480 l 1
 160 480 l 1
 192 480 l 1
 224 480 l 1
 256 480 l 1
 288 480 l 1
 320 480 l 1
 352 480 l 1
 384 480 l 1
 416 480 l 1
 448 480 l 1
 480 480 l 1
 480 448 l 1
 512 448 l 1
 512 416 l 1
 480 416 l 1
 480 384 l 1
 448 384 l 1
 416 384 l 1
 384 384 l 1
 352 384 l 1
 320 384 l 1
 288 384 l 1
 256 384 l 1
 224 384 l 1
 192 384 l 1
 160 384 l 1
 128 384 l 1
 96 384 l 1
96 512 m 1
 96 544 l 1
 64 544 l 1
 64 576 l 1
 96 576 l 1
 96 608 l 1
 128 608 l 1
 160 608 l 1
 192 608 l 1
 192 576 l 1
 224 576 l 1
 224 544 l 1
 192 544 l 1
 192 512 l 1
 160 512 l 1
 128 512 l 1
 96 512 l 1
96 640 m 1
 96 672 l 1
 64 672 l 1
 64 704 l 1
 96 704 l 1
 96 736 l 1
 128 736 l 1
 160 736 l 1
 192 736 l 1
 192 704 l 1
 224 704 l 1
 224 672 l 1
 192 672 l 1
 192 640 l 1
 160 640 l 1
 128 640 l 1
 96 640 l 1
96 768 m 1
 96 800 l 1
 64 800 l 1
 64 832 l 1
 96 832 l 1
 96 864 l 1
 128 864 l 1
 160 864 l 1
 192 864 l 1
 224 864 l 1
 256 864 l 1
 288 864 l 1
 320 864 l 1
 352 864 l 1
 384 864 l 1
 416 864 l 1
 448 864 l 1
 480 864 l 1
 512 864 l 1
 544 864 l 1
 576 864 l 1
 576 832 l 1
 608 832 l 1
 608 800 l 1
 576 800 l 1
 576 768 l 1
 544 768 l 1
 512 768 l 1
 480 768 l 1
 448 768 l 1
 416 768 l 1
 384 768 l 1
 352 768 l 1
 320 768 l 1
 288 768 l 1
 256 768 l 1
 224 768 l 1
 192 768 l 1
 160 768 l 1
 128 768 l 1
 96 768 l 1
EndSplineSet
EndChar

StartChar: F
Encoding: 70 70 20
Width: 630
VWidth: 0
Flags: HW
LayerCount: 2
Back
Fore
SplineSet
96 0 m 1
 96 32 l 1
 64 32 l 1
 64 64 l 1
 96 64 l 1
 96 96 l 1
 128 96 l 1
 160 96 l 1
 192 96 l 1
 192 64 l 1
 224 64 l 1
 224 32 l 1
 192 32 l 1
 192 0 l 1
 160 0 l 1
 128 0 l 1
 96 0 l 1
96 128 m 1
 96 160 l 1
 64 160 l 1
 64 192 l 1
 96 192 l 1
 96 224 l 1
 128 224 l 1
 160 224 l 1
 192 224 l 1
 192 192 l 1
 224 192 l 1
 224 160 l 1
 192 160 l 1
 192 128 l 1
 160 128 l 1
 128 128 l 1
 96 128 l 1
96 256 m 1
 96 288 l 1
 64 288 l 1
 64 320 l 1
 96 320 l 1
 96 352 l 1
 128 352 l 1
 160 352 l 1
 192 352 l 1
 192 320 l 1
 224 320 l 1
 224 288 l 1
 192 288 l 1
 192 256 l 1
 160 256 l 1
 128 256 l 1
 96 256 l 1
96 384 m 1
 96 416 l 1
 64 416 l 1
 64 448 l 1
 96 448 l 1
 96 480 l 1
 128 480 l 1
 160 480 l 1
 192 480 l 1
 224 480 l 1
 256 480 l 1
 288 480 l 1
 320 480 l 1
 352 480 l 1
 384 480 l 1
 416 480 l 1
 448 480 l 1
 480 480 l 1
 480 448 l 1
 512 448 l 1
 512 416 l 1
 480 416 l 1
 480 384 l 1
 448 384 l 1
 416 384 l 1
 384 384 l 1
 352 384 l 1
 320 384 l 1
 288 384 l 1
 256 384 l 1
 224 384 l 1
 192 384 l 1
 160 384 l 1
 128 384 l 1
 96 384 l 1
96 512 m 1
 96 544 l 1
 64 544 l 1
 64 576 l 1
 96 576 l 1
 96 608 l 1
 128 608 l 1
 160 608 l 1
 192 608 l 1
 192 576 l 1
 224 576 l 1
 224 544 l 1
 192 544 l 1
 192 512 l 1
 160 512 l 1
 128 512 l 1
 96 512 l 1
96 640 m 1
 96 672 l 1
 64 672 l 1
 64 704 l 1
 96 704 l 1
 96 736 l 1
 128 736 l 1
 160 736 l 1
 192 736 l 1
 192 704 l 1
 224 704 l 1
 224 672 l 1
 192 672 l 1
 192 640 l 1
 160 640 l 1
 128 640 l 1
 96 640 l 1
96 768 m 1
 96 800 l 1
 64 800 l 1
 64 832 l 1
 96 832 l 1
 96 864 l 1
 128 864 l 1
 160 864 l 1
 192 864 l 1
 224 864 l 1
 256 864 l 1
 288 864 l 1
 320 864 l 1
 352 864 l 1
 384 864 l 1
 416 864 l 1
 448 864 l 1
 480 864 l 1
 512 864 l 1
 544 864 l 1
 576 864 l 1
 576 832 l 1
 608 832 l 1
 608 800 l 1
 576 800 l 1
 576 768 l 1
 544 768 l 1
 512 768 l 1
 480 768 l 1
 448 768 l 1
 416 768 l 1
 384 768 l 1
 352 768 l 1
 320 768 l 1
 288 768 l 1
 256 768 l 1
 224 768 l 1
 192 768 l 1
 160 768 l 1
 128 768 l 1
 96 768 l 1
EndSplineSet
EndChar

StartChar: G
Encoding: 71 71 21
Width: 630
VWidth: 0
Flags: HW
LayerCount: 2
Back
Fore
SplineSet
192 0 m 1
 192 32 l 1
 160 32 l 1
 160 64 l 1
 192 64 l 1
 192 96 l 1
 224 96 l 1
 256 96 l 1
 288 96 l 1
 320 96 l 1
 352 96 l 1
 384 96 l 1
 416 96 l 1
 448 96 l 1
 480 96 l 1
 512 96 l 1
 544 96 l 1
 576 96 l 1
 576 64 l 1
 608 64 l 1
 608 32 l 1
 576 32 l 1
 576 0 l 1
 544 0 l 1
 512 0 l 1
 480 0 l 1
 448 0 l 1
 416 0 l 1
 384 0 l 1
 352 0 l 1
 320 0 l 1
 288 0 l 1
 256 0 l 1
 224 0 l 1
 192 0 l 1
96 128 m 1
 96 160 l 1
 64 160 l 1
 64 192 l 1
 96 192 l 1
 96 224 l 1
 128 224 l 1
 160 224 l 1
 192 224 l 1
 192 192 l 1
 224 192 l 1
 224 160 l 1
 192 160 l 1
 192 128 l 1
 160 128 l 1
 128 128 l 1
 96 128 l 1
480 128 m 1
 480 160 l 1
 448 160 l 1
 448 192 l 1
 480 192 l 1
 480 224 l 1
 512 224 l 1
 544 224 l 1
 576 224 l 1
 576 192 l 1
 608 192 l 1
 608 160 l 1
 576 160 l 1
 576 128 l 1
 544 128 l 1
 512 128 l 1
 480 128 l 1
96 256 m 1
 96 288 l 1
 64 288 l 1
 64 320 l 1
 96 320 l 1
 96 352 l 1
 128 352 l 1
 160 352 l 1
 192 352 l 1
 192 320 l 1
 224 320 l 1
 224 288 l 1
 192 288 l 1
 192 256 l 1
 160 256 l 1
 128 256 l 1
 96 256 l 1
384 256 m 1
 384 288 l 1
 352 288 l 1
 352 320 l 1
 384 320 l 1
 384 352 l 1
 416 352 l 1
 448 352 l 1
 480 352 l 1
 512 352 l 1
 544 352 l 1
 576 352 l 1
 576 320 l 1
 608 320 l 1
 608 288 l 1
 576 288 l 1
 576 256 l 1
 544 256 l 1
 512 256 l 1
 480 256 l 1
 448 256 l 1
 416 256 l 1
 384 256 l 1
96 384 m 1
 96 416 l 1
 64 416 l 1
 64 448 l 1
 96 448 l 1
 96 480 l 1
 128 480 l 1
 160 480 l 1
 192 480 l 1
 192 448 l 1
 224 448 l 1
 224 416 l 1
 192 416 l 1
 192 384 l 1
 160 384 l 1
 128 384 l 1
 96 384 l 1
96 512 m 1
 96 544 l 1
 64 544 l 1
 64 576 l 1
 96 576 l 1
 96 608 l 1
 128 608 l 1
 160 608 l 1
 192 608 l 1
 192 576 l 1
 224 576 l 1
 224 544 l 1
 192 544 l 1
 192 512 l 1
 160 512 l 1
 128 512 l 1
 96 512 l 1
96 640 m 1
 96 672 l 1
 64 672 l 1
 64 704 l 1
 96 704 l 1
 96 736 l 1
 128 736 l 1
 160 736 l 1
 192 736 l 1
 192 704 l 1
 224 704 l 1
 224 672 l 1
 192 672 l 1
 192 640 l 1
 160 640 l 1
 128 640 l 1
 96 640 l 1
480 640 m 1
 480 672 l 1
 448 672 l 1
 448 704 l 1
 480 704 l 1
 480 736 l 1
 512 736 l 1
 544 736 l 1
 576 736 l 1
 576 704 l 1
 608 704 l 1
 608 672 l 1
 576 672 l 1
 576 640 l 1
 544 640 l 1
 512 640 l 1
 480 640 l 1
192 768 m 1
 192 800 l 1
 160 800 l 1
 160 832 l 1
 192 832 l 1
 192 864 l 1
 224 864 l 1
 256 864 l 1
 288 864 l 1
 320 864 l 1
 352 864 l 1
 384 864 l 1
 416 864 l 1
 448 864 l 1
 480 864 l 1
 480 832 l 1
 512 832 l 1
 512 800 l 1
 480 800 l 1
 480 768 l 1
 448 768 l 1
 416 768 l 1
 384 768 l 1
 352 768 l 1
 320 768 l 1
 288 768 l 1
 256 768 l 1
 224 768 l 1
 192 768 l 1
EndSplineSet
EndChar

StartChar: H
Encoding: 72 72 22
Width: 630
VWidth: 0
Flags: HW
LayerCount: 2
Back
Fore
SplineSet
96 0 m 1
 96 32 l 1
 64 32 l 1
 64 64 l 1
 96 64 l 1
 96 96 l 1
 128 96 l 1
 160 96 l 1
 192 96 l 1
 192 64 l 1
 224 64 l 1
 224 32 l 1
 192 32 l 1
 192 0 l 1
 160 0 l 1
 128 0 l 1
 96 0 l 1
480 0 m 1
 480 32 l 1
 448 32 l 1
 448 64 l 1
 480 64 l 1
 480 96 l 1
 512 96 l 1
 544 96 l 1
 576 96 l 1
 576 64 l 1
 608 64 l 1
 608 32 l 1
 576 32 l 1
 576 0 l 1
 544 0 l 1
 512 0 l 1
 480 0 l 1
96 128 m 1
 96 160 l 1
 64 160 l 1
 64 192 l 1
 96 192 l 1
 96 224 l 1
 128 224 l 1
 160 224 l 1
 192 224 l 1
 192 192 l 1
 224 192 l 1
 224 160 l 1
 192 160 l 1
 192 128 l 1
 160 128 l 1
 128 128 l 1
 96 128 l 1
480 128 m 1
 480 160 l 1
 448 160 l 1
 448 192 l 1
 480 192 l 1
 480 224 l 1
 512 224 l 1
 544 224 l 1
 576 224 l 1
 576 192 l 1
 608 192 l 1
 608 160 l 1
 576 160 l 1
 576 128 l 1
 544 128 l 1
 512 128 l 1
 480 128 l 1
96 256 m 1
 96 288 l 1
 64 288 l 1
 64 320 l 1
 96 320 l 1
 96 352 l 1
 128 352 l 1
 160 352 l 1
 192 352 l 1
 192 320 l 1
 224 320 l 1
 224 288 l 1
 192 288 l 1
 192 256 l 1
 160 256 l 1
 128 256 l 1
 96 256 l 1
480 256 m 1
 480 288 l 1
 448 288 l 1
 448 320 l 1
 480 320 l 1
 480 352 l 1
 512 352 l 1
 544 352 l 1
 576 352 l 1
 576 320 l 1
 608 320 l 1
 608 288 l 1
 576 288 l 1
 576 256 l 1
 544 256 l 1
 512 256 l 1
 480 256 l 1
96 384 m 1
 96 416 l 1
 64 416 l 1
 64 448 l 1
 96 448 l 1
 96 480 l 1
 128 480 l 1
 160 480 l 1
 192 480 l 1
 224 480 l 1
 256 480 l 1
 288 480 l 1
 320 480 l 1
 352 480 l 1
 384 480 l 1
 416 480 l 1
 448 480 l 1
 480 480 l 1
 512 480 l 1
 544 480 l 1
 576 480 l 1
 576 448 l 1
 608 448 l 1
 608 416 l 1
 576 416 l 1
 576 384 l 1
 544 384 l 1
 512 384 l 1
 480 384 l 1
 448 384 l 1
 416 384 l 1
 384 384 l 1
 352 384 l 1
 320 384 l 1
 288 384 l 1
 256 384 l 1
 224 384 l 1
 192 384 l 1
 160 384 l 1
 128 384 l 1
 96 384 l 1
96 512 m 1
 96 544 l 1
 64 544 l 1
 64 576 l 1
 96 576 l 1
 96 608 l 1
 128 608 l 1
 160 608 l 1
 192 608 l 1
 192 576 l 1
 224 576 l 1
 224 544 l 1
 192 544 l 1
 192 512 l 1
 160 512 l 1
 128 512 l 1
 96 512 l 1
480 512 m 1
 480 544 l 1
 448 544 l 1
 448 576 l 1
 480 576 l 1
 480 608 l 1
 512 608 l 1
 544 608 l 1
 576 608 l 1
 576 576 l 1
 608 576 l 1
 608 544 l 1
 576 544 l 1
 576 512 l 1
 544 512 l 1
 512 512 l 1
 480 512 l 1
96 640 m 1
 96 672 l 1
 64 672 l 1
 64 704 l 1
 96 704 l 1
 96 736 l 1
 128 736 l 1
 160 736 l 1
 192 736 l 1
 192 704 l 1
 224 704 l 1
 224 672 l 1
 192 672 l 1
 192 640 l 1
 160 640 l 1
 128 640 l 1
 96 640 l 1
480 640 m 1
 480 672 l 1
 448 672 l 1
 448 704 l 1
 480 704 l 1
 480 736 l 1
 512 736 l 1
 544 736 l 1
 576 736 l 1
 576 704 l 1
 608 704 l 1
 608 672 l 1
 576 672 l 1
 576 640 l 1
 544 640 l 1
 512 640 l 1
 480 640 l 1
96 768 m 1
 96 800 l 1
 64 800 l 1
 64 832 l 1
 96 832 l 1
 96 864 l 1
 128 864 l 1
 160 864 l 1
 192 864 l 1
 192 832 l 1
 224 832 l 1
 224 800 l 1
 192 800 l 1
 192 768 l 1
 160 768 l 1
 128 768 l 1
 96 768 l 1
480 768 m 1
 480 800 l 1
 448 800 l 1
 448 832 l 1
 480 832 l 1
 480 864 l 1
 512 864 l 1
 544 864 l 1
 576 864 l 1
 576 832 l 1
 608 832 l 1
 608 800 l 1
 576 800 l 1
 576 768 l 1
 544 768 l 1
 512 768 l 1
 480 768 l 1
EndSplineSet
EndChar

StartChar: I
Encoding: 73 73 23
Width: 630
VWidth: 0
Flags: HW
LayerCount: 2
Back
Fore
SplineSet
192 0 m 1
 192 32 l 1
 160 32 l 1
 160 64 l 1
 192 64 l 1
 192 96 l 1
 224 96 l 1
 256 96 l 1
 288 96 l 1
 320 96 l 1
 352 96 l 1
 384 96 l 1
 416 96 l 1
 448 96 l 1
 480 96 l 1
 480 64 l 1
 512 64 l 1
 512 32 l 1
 480 32 l 1
 480 0 l 1
 448 0 l 1
 416 0 l 1
 384 0 l 1
 352 0 l 1
 320 0 l 1
 288 0 l 1
 256 0 l 1
 224 0 l 1
 192 0 l 1
288 128 m 1
 288 160 l 1
 256 160 l 1
 256 192 l 1
 288 192 l 1
 288 224 l 1
 320 224 l 1
 352 224 l 1
 384 224 l 1
 384 192 l 1
 416 192 l 1
 416 160 l 1
 384 160 l 1
 384 128 l 1
 352 128 l 1
 320 128 l 1
 288 128 l 1
288 256 m 1
 288 288 l 1
 256 288 l 1
 256 320 l 1
 288 320 l 1
 288 352 l 1
 320 352 l 1
 352 352 l 1
 384 352 l 1
 384 320 l 1
 416 320 l 1
 416 288 l 1
 384 288 l 1
 384 256 l 1
 352 256 l 1
 320 256 l 1
 288 256 l 1
288 384 m 1
 288 416 l 1
 256 416 l 1
 256 448 l 1
 288 448 l 1
 288 480 l 1
 320 480 l 1
 352 480 l 1
 384 480 l 1
 384 448 l 1
 416 448 l 1
 416 416 l 1
 384 416 l 1
 384 384 l 1
 352 384 l 1
 320 384 l 1
 288 384 l 1
288 512 m 1
 288 544 l 1
 256 544 l 1
 256 576 l 1
 288 576 l 1
 288 608 l 1
 320 608 l 1
 352 608 l 1
 384 608 l 1
 384 576 l 1
 416 576 l 1
 416 544 l 1
 384 544 l 1
 384 512 l 1
 352 512 l 1
 320 512 l 1
 288 512 l 1
288 640 m 1
 288 672 l 1
 256 672 l 1
 256 704 l 1
 288 704 l 1
 288 736 l 1
 320 736 l 1
 352 736 l 1
 384 736 l 1
 384 704 l 1
 416 704 l 1
 416 672 l 1
 384 672 l 1
 384 640 l 1
 352 640 l 1
 320 640 l 1
 288 640 l 1
192 768 m 1
 192 800 l 1
 160 800 l 1
 160 832 l 1
 192 832 l 1
 192 864 l 1
 224 864 l 1
 256 864 l 1
 288 864 l 1
 320 864 l 1
 352 864 l 1
 384 864 l 1
 416 864 l 1
 448 864 l 1
 480 864 l 1
 480 832 l 1
 512 832 l 1
 512 800 l 1
 480 800 l 1
 480 768 l 1
 448 768 l 1
 416 768 l 1
 384 768 l 1
 352 768 l 1
 320 768 l 1
 288 768 l 1
 256 768 l 1
 224 768 l 1
 192 768 l 1
EndSplineSet
EndChar

StartChar: J
Encoding: 74 74 24
Width: 630
VWidth: 0
Flags: HW
LayerCount: 2
Back
Fore
SplineSet
192 0 m 1
 192 32 l 1
 160 32 l 1
 160 64 l 1
 192 64 l 1
 192 96 l 1
 224 96 l 1
 256 96 l 1
 288 96 l 1
 320 96 l 1
 352 96 l 1
 384 96 l 1
 416 96 l 1
 448 96 l 1
 480 96 l 1
 480 64 l 1
 512 64 l 1
 512 32 l 1
 480 32 l 1
 480 0 l 1
 448 0 l 1
 416 0 l 1
 384 0 l 1
 352 0 l 1
 320 0 l 1
 288 0 l 1
 256 0 l 1
 224 0 l 1
 192 0 l 1
96 128 m 1
 96 160 l 1
 64 160 l 1
 64 192 l 1
 96 192 l 1
 96 224 l 1
 128 224 l 1
 160 224 l 1
 192 224 l 1
 192 192 l 1
 224 192 l 1
 224 160 l 1
 192 160 l 1
 192 128 l 1
 160 128 l 1
 128 128 l 1
 96 128 l 1
480 128 m 1
 480 160 l 1
 448 160 l 1
 448 192 l 1
 480 192 l 1
 480 224 l 1
 512 224 l 1
 544 224 l 1
 576 224 l 1
 576 192 l 1
 608 192 l 1
 608 160 l 1
 576 160 l 1
 576 128 l 1
 544 128 l 1
 512 128 l 1
 480 128 l 1
480 256 m 1
 480 288 l 1
 448 288 l 1
 448 320 l 1
 480 320 l 1
 480 352 l 1
 512 352 l 1
 544 352 l 1
 576 352 l 1
 576 320 l 1
 608 320 l 1
 608 288 l 1
 576 288 l 1
 576 256 l 1
 544 256 l 1
 512 256 l 1
 480 256 l 1
480 384 m 1
 480 416 l 1
 448 416 l 1
 448 448 l 1
 480 448 l 1
 480 480 l 1
 512 480 l 1
 544 480 l 1
 576 480 l 1
 576 448 l 1
 608 448 l 1
 608 416 l 1
 576 416 l 1
 576 384 l 1
 544 384 l 1
 512 384 l 1
 480 384 l 1
480 512 m 1
 480 544 l 1
 448 544 l 1
 448 576 l 1
 480 576 l 1
 480 608 l 1
 512 608 l 1
 544 608 l 1
 576 608 l 1
 576 576 l 1
 608 576 l 1
 608 544 l 1
 576 544 l 1
 576 512 l 1
 544 512 l 1
 512 512 l 1
 480 512 l 1
480 640 m 1
 480 672 l 1
 448 672 l 1
 448 704 l 1
 480 704 l 1
 480 736 l 1
 512 736 l 1
 544 736 l 1
 576 736 l 1
 576 704 l 1
 608 704 l 1
 608 672 l 1
 576 672 l 1
 576 640 l 1
 544 640 l 1
 512 640 l 1
 480 640 l 1
480 768 m 1
 480 800 l 1
 448 800 l 1
 448 832 l 1
 480 832 l 1
 480 864 l 1
 512 864 l 1
 544 864 l 1
 576 864 l 1
 576 832 l 1
 608 832 l 1
 608 800 l 1
 576 800 l 1
 576 768 l 1
 544 768 l 1
 512 768 l 1
 480 768 l 1
EndSplineSet
EndChar

StartChar: K
Encoding: 75 75 25
Width: 630
VWidth: 0
Flags: HW
LayerCount: 2
Back
Fore
SplineSet
96 0 m 1
 96 32 l 1
 64 32 l 1
 64 64 l 1
 96 64 l 1
 96 96 l 1
 128 96 l 1
 160 96 l 1
 192 96 l 1
 192 64 l 1
 224 64 l 1
 224 32 l 1
 192 32 l 1
 192 0 l 1
 160 0 l 1
 128 0 l 1
 96 0 l 1
480 0 m 1
 480 32 l 1
 448 32 l 1
 448 64 l 1
 480 64 l 1
 480 96 l 1
 512 96 l 1
 544 96 l 1
 576 96 l 1
 576 64 l 1
 608 64 l 1
 608 32 l 1
 576 32 l 1
 576 0 l 1
 544 0 l 1
 512 0 l 1
 480 0 l 1
96 128 m 1
 96 160 l 1
 64 160 l 1
 64 192 l 1
 96 192 l 1
 96 224 l 1
 128 224 l 1
 160 224 l 1
 192 224 l 1
 192 192 l 1
 224 192 l 1
 224 160 l 1
 192 160 l 1
 192 128 l 1
 160 128 l 1
 128 128 l 1
 96 128 l 1
384 128 m 1
 384 160 l 1
 352 160 l 1
 352 192 l 1
 384 192 l 1
 384 224 l 1
 416 224 l 1
 448 224 l 1
 480 224 l 1
 480 192 l 1
 512 192 l 1
 512 160 l 1
 480 160 l 1
 480 128 l 1
 448 128 l 1
 416 128 l 1
 384 128 l 1
96 256 m 1
 96 288 l 1
 64 288 l 1
 64 320 l 1
 96 320 l 1
 96 352 l 1
 128 352 l 1
 160 352 l 1
 192 352 l 1
 192 320 l 1
 224 320 l 1
 224 288 l 1
 192 288 l 1
 192 256 l 1
 160 256 l 1
 128 256 l 1
 96 256 l 1
288 256 m 1
 288 288 l 1
 256 288 l 1
 256 320 l 1
 288 320 l 1
 288 352 l 1
 320 352 l 1
 352 352 l 1
 384 352 l 1
 384 320 l 1
 416 320 l 1
 416 288 l 1
 384 288 l 1
 384 256 l 1
 352 256 l 1
 320 256 l 1
 288 256 l 1
96 384 m 1
 96 416 l 1
 64 416 l 1
 64 448 l 1
 96 448 l 1
 96 480 l 1
 128 480 l 1
 160 480 l 1
 192 480 l 1
 224 480 l 1
 256 480 l 1
 288 480 l 1
 288 448 l 1
 320 448 l 1
 320 416 l 1
 288 416 l 1
 288 384 l 1
 256 384 l 1
 224 384 l 1
 192 384 l 1
 160 384 l 1
 128 384 l 1
 96 384 l 1
96 512 m 1
 96 544 l 1
 64 544 l 1
 64 576 l 1
 96 576 l 1
 96 608 l 1
 128 608 l 1
 160 608 l 1
 192 608 l 1
 192 576 l 1
 224 576 l 1
 224 544 l 1
 192 544 l 1
 192 512 l 1
 160 512 l 1
 128 512 l 1
 96 512 l 1
288 512 m 1
 288 544 l 1
 256 544 l 1
 256 576 l 1
 288 576 l 1
 288 608 l 1
 320 608 l 1
 352 608 l 1
 384 608 l 1
 384 576 l 1
 416 576 l 1
 416 544 l 1
 384 544 l 1
 384 512 l 1
 352 512 l 1
 320 512 l 1
 288 512 l 1
96 640 m 1
 96 672 l 1
 64 672 l 1
 64 704 l 1
 96 704 l 1
 96 736 l 1
 128 736 l 1
 160 736 l 1
 192 736 l 1
 192 704 l 1
 224 704 l 1
 224 672 l 1
 192 672 l 1
 192 640 l 1
 160 640 l 1
 128 640 l 1
 96 640 l 1
384 640 m 1
 384 672 l 1
 352 672 l 1
 352 704 l 1
 384 704 l 1
 384 736 l 1
 416 736 l 1
 448 736 l 1
 480 736 l 1
 480 704 l 1
 512 704 l 1
 512 672 l 1
 480 672 l 1
 480 640 l 1
 448 640 l 1
 416 640 l 1
 384 640 l 1
96 768 m 1
 96 800 l 1
 64 800 l 1
 64 832 l 1
 96 832 l 1
 96 864 l 1
 128 864 l 1
 160 864 l 1
 192 864 l 1
 192 832 l 1
 224 832 l 1
 224 800 l 1
 192 800 l 1
 192 768 l 1
 160 768 l 1
 128 768 l 1
 96 768 l 1
480 768 m 1
 480 800 l 1
 448 800 l 1
 448 832 l 1
 480 832 l 1
 480 864 l 1
 512 864 l 1
 544 864 l 1
 576 864 l 1
 576 832 l 1
 608 832 l 1
 608 800 l 1
 576 800 l 1
 576 768 l 1
 544 768 l 1
 512 768 l 1
 480 768 l 1
EndSplineSet
EndChar

StartChar: L
Encoding: 76 76 26
Width: 630
VWidth: 0
Flags: HW
LayerCount: 2
Back
Fore
SplineSet
96 0 m 1
 96 32 l 1
 64 32 l 1
 64 64 l 1
 96 64 l 1
 96 96 l 1
 128 96 l 1
 160 96 l 1
 192 96 l 1
 224 96 l 1
 256 96 l 1
 288 96 l 1
 320 96 l 1
 352 96 l 1
 384 96 l 1
 416 96 l 1
 448 96 l 1
 480 96 l 1
 512 96 l 1
 544 96 l 1
 576 96 l 1
 576 64 l 1
 608 64 l 1
 608 32 l 1
 576 32 l 1
 576 0 l 1
 544 0 l 1
 512 0 l 1
 480 0 l 1
 448 0 l 1
 416 0 l 1
 384 0 l 1
 352 0 l 1
 320 0 l 1
 288 0 l 1
 256 0 l 1
 224 0 l 1
 192 0 l 1
 160 0 l 1
 128 0 l 1
 96 0 l 1
96 128 m 1
 96 160 l 1
 64 160 l 1
 64 192 l 1
 96 192 l 1
 96 224 l 1
 128 224 l 1
 160 224 l 1
 192 224 l 1
 192 192 l 1
 224 192 l 1
 224 160 l 1
 192 160 l 1
 192 128 l 1
 160 128 l 1
 128 128 l 1
 96 128 l 1
96 256 m 1
 96 288 l 1
 64 288 l 1
 64 320 l 1
 96 320 l 1
 96 352 l 1
 128 352 l 1
 160 352 l 1
 192 352 l 1
 192 320 l 1
 224 320 l 1
 224 288 l 1
 192 288 l 1
 192 256 l 1
 160 256 l 1
 128 256 l 1
 96 256 l 1
96 384 m 1
 96 416 l 1
 64 416 l 1
 64 448 l 1
 96 448 l 1
 96 480 l 1
 128 480 l 1
 160 480 l 1
 192 480 l 1
 192 448 l 1
 224 448 l 1
 224 416 l 1
 192 416 l 1
 192 384 l 1
 160 384 l 1
 128 384 l 1
 96 384 l 1
96 512 m 1
 96 544 l 1
 64 544 l 1
 64 576 l 1
 96 576 l 1
 96 608 l 1
 128 608 l 1
 160 608 l 1
 192 608 l 1
 192 576 l 1
 224 576 l 1
 224 544 l 1
 192 544 l 1
 192 512 l 1
 160 512 l 1
 128 512 l 1
 96 512 l 1
96 640 m 1
 96 672 l 1
 64 672 l 1
 64 704 l 1
 96 704 l 1
 96 736 l 1
 128 736 l 1
 160 736 l 1
 192 736 l 1
 192 704 l 1
 224 704 l 1
 224 672 l 1
 192 672 l 1
 192 640 l 1
 160 640 l 1
 128 640 l 1
 96 640 l 1
96 768 m 1
 96 800 l 1
 64 800 l 1
 64 832 l 1
 96 832 l 1
 96 864 l 1
 128 864 l 1
 160 864 l 1
 192 864 l 1
 192 832 l 1
 224 832 l 1
 224 800 l 1
 192 800 l 1
 192 768 l 1
 160 768 l 1
 128 768 l 1
 96 768 l 1
EndSplineSet
EndChar

StartChar: M
Encoding: 77 77 27
Width: 630
VWidth: 0
Flags: HW
LayerCount: 2
Back
Fore
SplineSet
96 0 m 1
 96 32 l 1
 64 32 l 1
 64 64 l 1
 96 64 l 1
 96 96 l 1
 128 96 l 1
 160 96 l 1
 192 96 l 1
 192 64 l 1
 224 64 l 1
 224 32 l 1
 192 32 l 1
 192 0 l 1
 160 0 l 1
 128 0 l 1
 96 0 l 1
480 0 m 1
 480 32 l 1
 448 32 l 1
 448 64 l 1
 480 64 l 1
 480 96 l 1
 512 96 l 1
 544 96 l 1
 576 96 l 1
 576 64 l 1
 608 64 l 1
 608 32 l 1
 576 32 l 1
 576 0 l 1
 544 0 l 1
 512 0 l 1
 480 0 l 1
96 128 m 1
 96 160 l 1
 64 160 l 1
 64 192 l 1
 96 192 l 1
 96 224 l 1
 128 224 l 1
 160 224 l 1
 192 224 l 1
 192 192 l 1
 224 192 l 1
 224 160 l 1
 192 160 l 1
 192 128 l 1
 160 128 l 1
 128 128 l 1
 96 128 l 1
480 128 m 1
 480 160 l 1
 448 160 l 1
 448 192 l 1
 480 192 l 1
 480 224 l 1
 512 224 l 1
 544 224 l 1
 576 224 l 1
 576 192 l 1
 608 192 l 1
 608 160 l 1
 576 160 l 1
 576 128 l 1
 544 128 l 1
 512 128 l 1
 480 128 l 1
96 256 m 1
 96 288 l 1
 64 288 l 1
 64 320 l 1
 96 320 l 1
 96 352 l 1
 128 352 l 1
 160 352 l 1
 192 352 l 1
 192 320 l 1
 224 320 l 1
 224 288 l 1
 192 288 l 1
 192 256 l 1
 160 256 l 1
 128 256 l 1
 96 256 l 1
480 256 m 1
 480 288 l 1
 448 288 l 1
 448 320 l 1
 480 320 l 1
 480 352 l 1
 512 352 l 1
 544 352 l 1
 576 352 l 1
 576 320 l 1
 608 320 l 1
 608 288 l 1
 576 288 l 1
 576 256 l 1
 544 256 l 1
 512 256 l 1
 480 256 l 1
96 384 m 1
 96 416 l 1
 64 416 l 1
 64 448 l 1
 96 448 l 1
 96 480 l 1
 128 480 l 1
 160 480 l 1
 192 480 l 1
 192 448 l 1
 224 448 l 1
 224 416 l 1
 192 416 l 1
 192 384 l 1
 160 384 l 1
 128 384 l 1
 96 384 l 1
288 384 m 1
 288 416 l 1
 256 416 l 1
 256 448 l 1
 288 448 l 1
 288 480 l 1
 320 480 l 1
 352 480 l 1
 384 480 l 1
 384 448 l 1
 416 448 l 1
 416 416 l 1
 384 416 l 1
 384 384 l 1
 352 384 l 1
 320 384 l 1
 288 384 l 1
480 384 m 1
 480 416 l 1
 448 416 l 1
 448 448 l 1
 480 448 l 1
 480 480 l 1
 512 480 l 1
 544 480 l 1
 576 480 l 1
 576 448 l 1
 608 448 l 1
 608 416 l 1
 576 416 l 1
 576 384 l 1
 544 384 l 1
 512 384 l 1
 480 384 l 1
96 512 m 1
 96 544 l 1
 64 544 l 1
 64 576 l 1
 96 576 l 1
 96 608 l 1
 128 608 l 1
 160 608 l 1
 192 608 l 1
 192 576 l 1
 224 576 l 1
 224 544 l 1
 192 544 l 1
 192 512 l 1
 160 512 l 1
 128 512 l 1
 96 512 l 1
288 512 m 1
 288 544 l 1
 256 544 l 1
 256 576 l 1
 288 576 l 1
 288 608 l 1
 320 608 l 1
 352 608 l 1
 384 608 l 1
 384 576 l 1
 416 576 l 1
 416 544 l 1
 384 544 l 1
 384 512 l 1
 352 512 l 1
 320 512 l 1
 288 512 l 1
480 512 m 1
 480 544 l 1
 448 544 l 1
 448 576 l 1
 480 576 l 1
 480 608 l 1
 512 608 l 1
 544 608 l 1
 576 608 l 1
 576 576 l 1
 608 576 l 1
 608 544 l 1
 576 544 l 1
 576 512 l 1
 544 512 l 1
 512 512 l 1
 480 512 l 1
96 640 m 1
 96 672 l 1
 64 672 l 1
 64 704 l 1
 96 704 l 1
 96 736 l 1
 128 736 l 1
 160 736 l 1
 192 736 l 1
 224 736 l 1
 256 736 l 1
 288 736 l 1
 288 704 l 1
 320 704 l 1
 320 672 l 1
 288 672 l 1
 288 640 l 1
 256 640 l 1
 224 640 l 1
 192 640 l 1
 160 640 l 1
 128 640 l 1
 96 640 l 1
384 640 m 1
 384 672 l 1
 352 672 l 1
 352 704 l 1
 384 704 l 1
 384 736 l 1
 416 736 l 1
 448 736 l 1
 480 736 l 1
 512 736 l 1
 544 736 l 1
 576 736 l 1
 576 704 l 1
 608 704 l 1
 608 672 l 1
 576 672 l 1
 576 640 l 1
 544 640 l 1
 512 640 l 1
 480 640 l 1
 448 640 l 1
 416 640 l 1
 384 640 l 1
96 768 m 1
 96 800 l 1
 64 800 l 1
 64 832 l 1
 96 832 l 1
 96 864 l 1
 128 864 l 1
 160 864 l 1
 192 864 l 1
 192 832 l 1
 224 832 l 1
 224 800 l 1
 192 800 l 1
 192 768 l 1
 160 768 l 1
 128 768 l 1
 96 768 l 1
480 768 m 1
 480 800 l 1
 448 800 l 1
 448 832 l 1
 480 832 l 1
 480 864 l 1
 512 864 l 1
 544 864 l 1
 576 864 l 1
 576 832 l 1
 608 832 l 1
 608 800 l 1
 576 800 l 1
 576 768 l 1
 544 768 l 1
 512 768 l 1
 480 768 l 1
EndSplineSet
EndChar

StartChar: N
Encoding: 78 78 28
Width: 630
VWidth: 0
Flags: HW
LayerCount: 2
Back
Fore
SplineSet
96 0 m 1
 96 32 l 1
 64 32 l 1
 64 64 l 1
 96 64 l 1
 96 96 l 1
 128 96 l 1
 160 96 l 1
 192 96 l 1
 192 64 l 1
 224 64 l 1
 224 32 l 1
 192 32 l 1
 192 0 l 1
 160 0 l 1
 128 0 l 1
 96 0 l 1
480 0 m 1
 480 32 l 1
 448 32 l 1
 448 64 l 1
 480 64 l 1
 480 96 l 1
 512 96 l 1
 544 96 l 1
 576 96 l 1
 576 64 l 1
 608 64 l 1
 608 32 l 1
 576 32 l 1
 576 0 l 1
 544 0 l 1
 512 0 l 1
 480 0 l 1
96 128 m 1
 96 160 l 1
 64 160 l 1
 64 192 l 1
 96 192 l 1
 96 224 l 1
 128 224 l 1
 160 224 l 1
 192 224 l 1
 192 192 l 1
 224 192 l 1
 224 160 l 1
 192 160 l 1
 192 128 l 1
 160 128 l 1
 128 128 l 1
 96 128 l 1
480 128 m 1
 480 160 l 1
 448 160 l 1
 448 192 l 1
 480 192 l 1
 480 224 l 1
 512 224 l 1
 544 224 l 1
 576 224 l 1
 576 192 l 1
 608 192 l 1
 608 160 l 1
 576 160 l 1
 576 128 l 1
 544 128 l 1
 512 128 l 1
 480 128 l 1
96 256 m 1
 96 288 l 1
 64 288 l 1
 64 320 l 1
 96 320 l 1
 96 352 l 1
 128 352 l 1
 160 352 l 1
 192 352 l 1
 192 320 l 1
 224 320 l 1
 224 288 l 1
 192 288 l 1
 192 256 l 1
 160 256 l 1
 128 256 l 1
 96 256 l 1
384 256 m 1
 384 288 l 1
 352 288 l 1
 352 320 l 1
 384 320 l 1
 384 352 l 1
 416 352 l 1
 448 352 l 1
 480 352 l 1
 512 352 l 1
 544 352 l 1
 576 352 l 1
 576 320 l 1
 608 320 l 1
 608 288 l 1
 576 288 l 1
 576 256 l 1
 544 256 l 1
 512 256 l 1
 480 256 l 1
 448 256 l 1
 416 256 l 1
 384 256 l 1
96 384 m 1
 96 416 l 1
 64 416 l 1
 64 448 l 1
 96 448 l 1
 96 480 l 1
 128 480 l 1
 160 480 l 1
 192 480 l 1
 192 448 l 1
 224 448 l 1
 224 416 l 1
 192 416 l 1
 192 384 l 1
 160 384 l 1
 128 384 l 1
 96 384 l 1
288 384 m 1
 288 416 l 1
 256 416 l 1
 256 448 l 1
 288 448 l 1
 288 480 l 1
 320 480 l 1
 352 480 l 1
 384 480 l 1
 384 448 l 1
 416 448 l 1
 416 416 l 1
 384 416 l 1
 384 384 l 1
 352 384 l 1
 320 384 l 1
 288 384 l 1
480 384 m 1
 480 416 l 1
 448 416 l 1
 448 448 l 1
 480 448 l 1
 480 480 l 1
 512 480 l 1
 544 480 l 1
 576 480 l 1
 576 448 l 1
 608 448 l 1
 608 416 l 1
 576 416 l 1
 576 384 l 1
 544 384 l 1
 512 384 l 1
 480 384 l 1
96 512 m 1
 96 544 l 1
 64 544 l 1
 64 576 l 1
 96 576 l 1
 96 608 l 1
 128 608 l 1
 160 608 l 1
 192 608 l 1
 224 608 l 1
 256 608 l 1
 288 608 l 1
 288 576 l 1
 320 576 l 1
 320 544 l 1
 288 544 l 1
 288 512 l 1
 256 512 l 1
 224 512 l 1
 192 512 l 1
 160 512 l 1
 128 512 l 1
 96 512 l 1
480 512 m 1
 480 544 l 1
 448 544 l 1
 448 576 l 1
 480 576 l 1
 480 608 l 1
 512 608 l 1
 544 608 l 1
 576 608 l 1
 576 576 l 1
 608 576 l 1
 608 544 l 1
 576 544 l 1
 576 512 l 1
 544 512 l 1
 512 512 l 1
 480 512 l 1
96 640 m 1
 96 672 l 1
 64 672 l 1
 64 704 l 1
 96 704 l 1
 96 736 l 1
 128 736 l 1
 160 736 l 1
 192 736 l 1
 192 704 l 1
 224 704 l 1
 224 672 l 1
 192 672 l 1
 192 640 l 1
 160 640 l 1
 128 640 l 1
 96 640 l 1
480 640 m 1
 480 672 l 1
 448 672 l 1
 448 704 l 1
 480 704 l 1
 480 736 l 1
 512 736 l 1
 544 736 l 1
 576 736 l 1
 576 704 l 1
 608 704 l 1
 608 672 l 1
 576 672 l 1
 576 640 l 1
 544 640 l 1
 512 640 l 1
 480 640 l 1
96 768 m 1
 96 800 l 1
 64 800 l 1
 64 832 l 1
 96 832 l 1
 96 864 l 1
 128 864 l 1
 160 864 l 1
 192 864 l 1
 192 832 l 1
 224 832 l 1
 224 800 l 1
 192 800 l 1
 192 768 l 1
 160 768 l 1
 128 768 l 1
 96 768 l 1
480 768 m 1
 480 800 l 1
 448 800 l 1
 448 832 l 1
 480 832 l 1
 480 864 l 1
 512 864 l 1
 544 864 l 1
 576 864 l 1
 576 832 l 1
 608 832 l 1
 608 800 l 1
 576 800 l 1
 576 768 l 1
 544 768 l 1
 512 768 l 1
 480 768 l 1
EndSplineSet
EndChar

StartChar: O
Encoding: 79 79 29
Width: 630
VWidth: 0
Flags: HW
LayerCount: 2
Back
Fore
SplineSet
192 0 m 1
 192 32 l 1
 160 32 l 1
 160 64 l 1
 192 64 l 1
 192 96 l 1
 224 96 l 1
 256 96 l 1
 288 96 l 1
 320 96 l 1
 352 96 l 1
 384 96 l 1
 416 96 l 1
 448 96 l 1
 480 96 l 1
 480 64 l 1
 512 64 l 1
 512 32 l 1
 480 32 l 1
 480 0 l 1
 448 0 l 1
 416 0 l 1
 384 0 l 1
 352 0 l 1
 320 0 l 1
 288 0 l 1
 256 0 l 1
 224 0 l 1
 192 0 l 1
96 128 m 1
 96 160 l 1
 64 160 l 1
 64 192 l 1
 96 192 l 1
 96 224 l 1
 128 224 l 1
 160 224 l 1
 192 224 l 1
 192 192 l 1
 224 192 l 1
 224 160 l 1
 192 160 l 1
 192 128 l 1
 160 128 l 1
 128 128 l 1
 96 128 l 1
480 128 m 1
 480 160 l 1
 448 160 l 1
 448 192 l 1
 480 192 l 1
 480 224 l 1
 512 224 l 1
 544 224 l 1
 576 224 l 1
 576 192 l 1
 608 192 l 1
 608 160 l 1
 576 160 l 1
 576 128 l 1
 544 128 l 1
 512 128 l 1
 480 128 l 1
96 256 m 1
 96 288 l 1
 64 288 l 1
 64 320 l 1
 96 320 l 1
 96 352 l 1
 128 352 l 1
 160 352 l 1
 192 352 l 1
 192 320 l 1
 224 320 l 1
 224 288 l 1
 192 288 l 1
 192 256 l 1
 160 256 l 1
 128 256 l 1
 96 256 l 1
480 256 m 1
 480 288 l 1
 448 288 l 1
 448 320 l 1
 480 320 l 1
 480 352 l 1
 512 352 l 1
 544 352 l 1
 576 352 l 1
 576 320 l 1
 608 320 l 1
 608 288 l 1
 576 288 l 1
 576 256 l 1
 544 256 l 1
 512 256 l 1
 480 256 l 1
96 384 m 1
 96 416 l 1
 64 416 l 1
 64 448 l 1
 96 448 l 1
 96 480 l 1
 128 480 l 1
 160 480 l 1
 192 480 l 1
 192 448 l 1
 224 448 l 1
 224 416 l 1
 192 416 l 1
 192 384 l 1
 160 384 l 1
 128 384 l 1
 96 384 l 1
480 384 m 1
 480 416 l 1
 448 416 l 1
 448 448 l 1
 480 448 l 1
 480 480 l 1
 512 480 l 1
 544 480 l 1
 576 480 l 1
 576 448 l 1
 608 448 l 1
 608 416 l 1
 576 416 l 1
 576 384 l 1
 544 384 l 1
 512 384 l 1
 480 384 l 1
96 512 m 1
 96 544 l 1
 64 544 l 1
 64 576 l 1
 96 576 l 1
 96 608 l 1
 128 608 l 1
 160 608 l 1
 192 608 l 1
 192 576 l 1
 224 576 l 1
 224 544 l 1
 192 544 l 1
 192 512 l 1
 160 512 l 1
 128 512 l 1
 96 512 l 1
480 512 m 1
 480 544 l 1
 448 544 l 1
 448 576 l 1
 480 576 l 1
 480 608 l 1
 512 608 l 1
 544 608 l 1
 576 608 l 1
 576 576 l 1
 608 576 l 1
 608 544 l 1
 576 544 l 1
 576 512 l 1
 544 512 l 1
 512 512 l 1
 480 512 l 1
96 640 m 1
 96 672 l 1
 64 672 l 1
 64 704 l 1
 96 704 l 1
 96 736 l 1
 128 736 l 1
 160 736 l 1
 192 736 l 1
 192 704 l 1
 224 704 l 1
 224 672 l 1
 192 672 l 1
 192 640 l 1
 160 640 l 1
 128 640 l 1
 96 640 l 1
480 640 m 1
 480 672 l 1
 448 672 l 1
 448 704 l 1
 480 704 l 1
 480 736 l 1
 512 736 l 1
 544 736 l 1
 576 736 l 1
 576 704 l 1
 608 704 l 1
 608 672 l 1
 576 672 l 1
 576 640 l 1
 544 640 l 1
 512 640 l 1
 480 640 l 1
192 768 m 1
 192 800 l 1
 160 800 l 1
 160 832 l 1
 192 832 l 1
 192 864 l 1
 224 864 l 1
 256 864 l 1
 288 864 l 1
 320 864 l 1
 352 864 l 1
 384 864 l 1
 416 864 l 1
 448 864 l 1
 480 864 l 1
 480 832 l 1
 512 832 l 1
 512 800 l 1
 480 800 l 1
 480 768 l 1
 448 768 l 1
 416 768 l 1
 384 768 l 1
 352 768 l 1
 320 768 l 1
 288 768 l 1
 256 768 l 1
 224 768 l 1
 192 768 l 1
EndSplineSet
EndChar

StartChar: P
Encoding: 80 80 30
Width: 630
VWidth: 0
Flags: HW
LayerCount: 2
Back
Fore
SplineSet
96 0 m 1
 96 32 l 1
 64 32 l 1
 64 64 l 1
 96 64 l 1
 96 96 l 1
 128 96 l 1
 160 96 l 1
 192 96 l 1
 192 64 l 1
 224 64 l 1
 224 32 l 1
 192 32 l 1
 192 0 l 1
 160 0 l 1
 128 0 l 1
 96 0 l 1
96 128 m 1
 96 160 l 1
 64 160 l 1
 64 192 l 1
 96 192 l 1
 96 224 l 1
 128 224 l 1
 160 224 l 1
 192 224 l 1
 192 192 l 1
 224 192 l 1
 224 160 l 1
 192 160 l 1
 192 128 l 1
 160 128 l 1
 128 128 l 1
 96 128 l 1
96 256 m 1
 96 288 l 1
 64 288 l 1
 64 320 l 1
 96 320 l 1
 96 352 l 1
 128 352 l 1
 160 352 l 1
 192 352 l 1
 192 320 l 1
 224 320 l 1
 224 288 l 1
 192 288 l 1
 192 256 l 1
 160 256 l 1
 128 256 l 1
 96 256 l 1
96 384 m 1
 96 416 l 1
 64 416 l 1
 64 448 l 1
 96 448 l 1
 96 480 l 1
 128 480 l 1
 160 480 l 1
 192 480 l 1
 224 480 l 1
 256 480 l 1
 288 480 l 1
 320 480 l 1
 352 480 l 1
 384 480 l 1
 416 480 l 1
 448 480 l 1
 480 480 l 1
 480 448 l 1
 512 448 l 1
 512 416 l 1
 480 416 l 1
 480 384 l 1
 448 384 l 1
 416 384 l 1
 384 384 l 1
 352 384 l 1
 320 384 l 1
 288 384 l 1
 256 384 l 1
 224 384 l 1
 192 384 l 1
 160 384 l 1
 128 384 l 1
 96 384 l 1
96 512 m 1
 96 544 l 1
 64 544 l 1
 64 576 l 1
 96 576 l 1
 96 608 l 1
 128 608 l 1
 160 608 l 1
 192 608 l 1
 192 576 l 1
 224 576 l 1
 224 544 l 1
 192 544 l 1
 192 512 l 1
 160 512 l 1
 128 512 l 1
 96 512 l 1
480 512 m 1
 480 544 l 1
 448 544 l 1
 448 576 l 1
 480 576 l 1
 480 608 l 1
 512 608 l 1
 544 608 l 1
 576 608 l 1
 576 576 l 1
 608 576 l 1
 608 544 l 1
 576 544 l 1
 576 512 l 1
 544 512 l 1
 512 512 l 1
 480 512 l 1
96 640 m 1
 96 672 l 1
 64 672 l 1
 64 704 l 1
 96 704 l 1
 96 736 l 1
 128 736 l 1
 160 736 l 1
 192 736 l 1
 192 704 l 1
 224 704 l 1
 224 672 l 1
 192 672 l 1
 192 640 l 1
 160 640 l 1
 128 640 l 1
 96 640 l 1
480 640 m 1
 480 672 l 1
 448 672 l 1
 448 704 l 1
 480 704 l 1
 480 736 l 1
 512 736 l 1
 544 736 l 1
 576 736 l 1
 576 704 l 1
 608 704 l 1
 608 672 l 1
 576 672 l 1
 576 640 l 1
 544 640 l 1
 512 640 l 1
 480 640 l 1
96 768 m 1
 96 800 l 1
 64 800 l 1
 64 832 l 1
 96 832 l 1
 96 864 l 1
 128 864 l 1
 160 864 l 1
 192 864 l 1
 224 864 l 1
 256 864 l 1
 288 864 l 1
 320 864 l 1
 352 864 l 1
 384 864 l 1
 416 864 l 1
 448 864 l 1
 480 864 l 1
 480 832 l 1
 512 832 l 1
 512 800 l 1
 480 800 l 1
 480 768 l 1
 448 768 l 1
 416 768 l 1
 384 768 l 1
 352 768 l 1
 320 768 l 1
 288 768 l 1
 256 768 l 1
 224 768 l 1
 192 768 l 1
 160 768 l 1
 128 768 l 1
 96 768 l 1
EndSplineSet
EndChar

StartChar: Q
Encoding: 81 81 31
Width: 630
VWidth: 0
Flags: HW
LayerCount: 2
Back
Fore
SplineSet
192 0 m 1
 192 32 l 1
 160 32 l 1
 160 64 l 1
 192 64 l 1
 192 96 l 1
 224 96 l 1
 256 96 l 1
 288 96 l 1
 320 96 l 1
 352 96 l 1
 384 96 l 1
 384 64 l 1
 416 64 l 1
 416 32 l 1
 384 32 l 1
 384 0 l 1
 352 0 l 1
 320 0 l 1
 288 0 l 1
 256 0 l 1
 224 0 l 1
 192 0 l 1
480 0 m 1
 480 32 l 1
 448 32 l 1
 448 64 l 1
 480 64 l 1
 480 96 l 1
 512 96 l 1
 544 96 l 1
 576 96 l 1
 576 64 l 1
 608 64 l 1
 608 32 l 1
 576 32 l 1
 576 0 l 1
 544 0 l 1
 512 0 l 1
 480 0 l 1
96 128 m 1
 96 160 l 1
 64 160 l 1
 64 192 l 1
 96 192 l 1
 96 224 l 1
 128 224 l 1
 160 224 l 1
 192 224 l 1
 192 192 l 1
 224 192 l 1
 224 160 l 1
 192 160 l 1
 192 128 l 1
 160 128 l 1
 128 128 l 1
 96 128 l 1
384 128 m 1
 384 160 l 1
 352 160 l 1
 352 192 l 1
 384 192 l 1
 384 224 l 1
 416 224 l 1
 448 224 l 1
 480 224 l 1
 480 192 l 1
 512 192 l 1
 512 160 l 1
 480 160 l 1
 480 128 l 1
 448 128 l 1
 416 128 l 1
 384 128 l 1
96 256 m 1
 96 288 l 1
 64 288 l 1
 64 320 l 1
 96 320 l 1
 96 352 l 1
 128 352 l 1
 160 352 l 1
 192 352 l 1
 192 320 l 1
 224 320 l 1
 224 288 l 1
 192 288 l 1
 192 256 l 1
 160 256 l 1
 128 256 l 1
 96 256 l 1
288 256 m 1
 288 288 l 1
 256 288 l 1
 256 320 l 1
 288 320 l 1
 288 352 l 1
 320 352 l 1
 352 352 l 1
 384 352 l 1
 384 320 l 1
 416 320 l 1
 416 288 l 1
 384 288 l 1
 384 256 l 1
 352 256 l 1
 320 256 l 1
 288 256 l 1
480 256 m 1
 480 288 l 1
 448 288 l 1
 448 320 l 1
 480 320 l 1
 480 352 l 1
 512 352 l 1
 544 352 l 1
 576 352 l 1
 576 320 l 1
 608 320 l 1
 608 288 l 1
 576 288 l 1
 576 256 l 1
 544 256 l 1
 512 256 l 1
 480 256 l 1
96 384 m 1
 96 416 l 1
 64 416 l 1
 64 448 l 1
 96 448 l 1
 96 480 l 1
 128 480 l 1
 160 480 l 1
 192 480 l 1
 192 448 l 1
 224 448 l 1
 224 416 l 1
 192 416 l 1
 192 384 l 1
 160 384 l 1
 128 384 l 1
 96 384 l 1
480 384 m 1
 480 416 l 1
 448 416 l 1
 448 448 l 1
 480 448 l 1
 480 480 l 1
 512 480 l 1
 544 480 l 1
 576 480 l 1
 576 448 l 1
 608 448 l 1
 608 416 l 1
 576 416 l 1
 576 384 l 1
 544 384 l 1
 512 384 l 1
 480 384 l 1
96 512 m 1
 96 544 l 1
 64 544 l 1
 64 576 l 1
 96 576 l 1
 96 608 l 1
 128 608 l 1
 160 608 l 1
 192 608 l 1
 192 576 l 1
 224 576 l 1
 224 544 l 1
 192 544 l 1
 192 512 l 1
 160 512 l 1
 128 512 l 1
 96 512 l 1
480 512 m 1
 480 544 l 1
 448 544 l 1
 448 576 l 1
 480 576 l 1
 480 608 l 1
 512 608 l 1
 544 608 l 1
 576 608 l 1
 576 576 l 1
 608 576 l 1
 608 544 l 1
 576 544 l 1
 576 512 l 1
 544 512 l 1
 512 512 l 1
 480 512 l 1
96 640 m 1
 96 672 l 1
 64 672 l 1
 64 704 l 1
 96 704 l 1
 96 736 l 1
 128 736 l 1
 160 736 l 1
 192 736 l 1
 192 704 l 1
 224 704 l 1
 224 672 l 1
 192 672 l 1
 192 640 l 1
 160 640 l 1
 128 640 l 1
 96 640 l 1
480 640 m 1
 480 672 l 1
 448 672 l 1
 448 704 l 1
 480 704 l 1
 480 736 l 1
 512 736 l 1
 544 736 l 1
 576 736 l 1
 576 704 l 1
 608 704 l 1
 608 672 l 1
 576 672 l 1
 576 640 l 1
 544 640 l 1
 512 640 l 1
 480 640 l 1
192 768 m 1
 192 800 l 1
 160 800 l 1
 160 832 l 1
 192 832 l 1
 192 864 l 1
 224 864 l 1
 256 864 l 1
 288 864 l 1
 320 864 l 1
 352 864 l 1
 384 864 l 1
 416 864 l 1
 448 864 l 1
 480 864 l 1
 480 832 l 1
 512 832 l 1
 512 800 l 1
 480 800 l 1
 480 768 l 1
 448 768 l 1
 416 768 l 1
 384 768 l 1
 352 768 l 1
 320 768 l 1
 288 768 l 1
 256 768 l 1
 224 768 l 1
 192 768 l 1
EndSplineSet
EndChar

StartChar: R
Encoding: 82 82 32
Width: 630
VWidth: 0
Flags: HW
LayerCount: 2
Back
Fore
SplineSet
96 0 m 1
 96 32 l 1
 64 32 l 1
 64 64 l 1
 96 64 l 1
 96 96 l 1
 128 96 l 1
 160 96 l 1
 192 96 l 1
 192 64 l 1
 224 64 l 1
 224 32 l 1
 192 32 l 1
 192 0 l 1
 160 0 l 1
 128 0 l 1
 96 0 l 1
480 0 m 1
 480 32 l 1
 448 32 l 1
 448 64 l 1
 480 64 l 1
 480 96 l 1
 512 96 l 1
 544 96 l 1
 576 96 l 1
 576 64 l 1
 608 64 l 1
 608 32 l 1
 576 32 l 1
 576 0 l 1
 544 0 l 1
 512 0 l 1
 480 0 l 1
96 128 m 1
 96 160 l 1
 64 160 l 1
 64 192 l 1
 96 192 l 1
 96 224 l 1
 128 224 l 1
 160 224 l 1
 192 224 l 1
 192 192 l 1
 224 192 l 1
 224 160 l 1
 192 160 l 1
 192 128 l 1
 160 128 l 1
 128 128 l 1
 96 128 l 1
384 128 m 1
 384 160 l 1
 352 160 l 1
 352 192 l 1
 384 192 l 1
 384 224 l 1
 416 224 l 1
 448 224 l 1
 480 224 l 1
 480 192 l 1
 512 192 l 1
 512 160 l 1
 480 160 l 1
 480 128 l 1
 448 128 l 1
 416 128 l 1
 384 128 l 1
96 256 m 1
 96 288 l 1
 64 288 l 1
 64 320 l 1
 96 320 l 1
 96 352 l 1
 128 352 l 1
 160 352 l 1
 192 352 l 1
 192 320 l 1
 224 320 l 1
 224 288 l 1
 192 288 l 1
 192 256 l 1
 160 256 l 1
 128 256 l 1
 96 256 l 1
288 256 m 1
 288 288 l 1
 256 288 l 1
 256 320 l 1
 288 320 l 1
 288 352 l 1
 320 352 l 1
 352 352 l 1
 384 352 l 1
 384 320 l 1
 416 320 l 1
 416 288 l 1
 384 288 l 1
 384 256 l 1
 352 256 l 1
 320 256 l 1
 288 256 l 1
96 384 m 1
 96 416 l 1
 64 416 l 1
 64 448 l 1
 96 448 l 1
 96 480 l 1
 128 480 l 1
 160 480 l 1
 192 480 l 1
 224 480 l 1
 256 480 l 1
 288 480 l 1
 320 480 l 1
 352 480 l 1
 384 480 l 1
 416 480 l 1
 448 480 l 1
 480 480 l 1
 480 448 l 1
 512 448 l 1
 512 416 l 1
 480 416 l 1
 480 384 l 1
 448 384 l 1
 416 384 l 1
 384 384 l 1
 352 384 l 1
 320 384 l 1
 288 384 l 1
 256 384 l 1
 224 384 l 1
 192 384 l 1
 160 384 l 1
 128 384 l 1
 96 384 l 1
96 512 m 1
 96 544 l 1
 64 544 l 1
 64 576 l 1
 96 576 l 1
 96 608 l 1
 128 608 l 1
 160 608 l 1
 192 608 l 1
 192 576 l 1
 224 576 l 1
 224 544 l 1
 192 544 l 1
 192 512 l 1
 160 512 l 1
 128 512 l 1
 96 512 l 1
480 512 m 1
 480 544 l 1
 448 544 l 1
 448 576 l 1
 480 576 l 1
 480 608 l 1
 512 608 l 1
 544 608 l 1
 576 608 l 1
 576 576 l 1
 608 576 l 1
 608 544 l 1
 576 544 l 1
 576 512 l 1
 544 512 l 1
 512 512 l 1
 480 512 l 1
96 640 m 1
 96 672 l 1
 64 672 l 1
 64 704 l 1
 96 704 l 1
 96 736 l 1
 128 736 l 1
 160 736 l 1
 192 736 l 1
 192 704 l 1
 224 704 l 1
 224 672 l 1
 192 672 l 1
 192 640 l 1
 160 640 l 1
 128 640 l 1
 96 640 l 1
480 640 m 1
 480 672 l 1
 448 672 l 1
 448 704 l 1
 480 704 l 1
 480 736 l 1
 512 736 l 1
 544 736 l 1
 576 736 l 1
 576 704 l 1
 608 704 l 1
 608 672 l 1
 576 672 l 1
 576 640 l 1
 544 640 l 1
 512 640 l 1
 480 640 l 1
96 768 m 1
 96 800 l 1
 64 800 l 1
 64 832 l 1
 96 832 l 1
 96 864 l 1
 128 864 l 1
 160 864 l 1
 192 864 l 1
 224 864 l 1
 256 864 l 1
 288 864 l 1
 320 864 l 1
 352 864 l 1
 384 864 l 1
 416 864 l 1
 448 864 l 1
 480 864 l 1
 480 832 l 1
 512 832 l 1
 512 800 l 1
 480 800 l 1
 480 768 l 1
 448 768 l 1
 416 768 l 1
 384 768 l 1
 352 768 l 1
 320 768 l 1
 288 768 l 1
 256 768 l 1
 224 768 l 1
 192 768 l 1
 160 768 l 1
 128 768 l 1
 96 768 l 1
EndSplineSet
EndChar

StartChar: S
Encoding: 83 83 33
Width: 630
VWidth: 0
Flags: HW
LayerCount: 2
Back
Fore
SplineSet
192 0 m 1
 192 32 l 1
 160 32 l 1
 160 64 l 1
 192 64 l 1
 192 96 l 1
 224 96 l 1
 256 96 l 1
 288 96 l 1
 320 96 l 1
 352 96 l 1
 384 96 l 1
 416 96 l 1
 448 96 l 1
 480 96 l 1
 480 64 l 1
 512 64 l 1
 512 32 l 1
 480 32 l 1
 480 0 l 1
 448 0 l 1
 416 0 l 1
 384 0 l 1
 352 0 l 1
 320 0 l 1
 288 0 l 1
 256 0 l 1
 224 0 l 1
 192 0 l 1
96 128 m 1
 96 160 l 1
 64 160 l 1
 64 192 l 1
 96 192 l 1
 96 224 l 1
 128 224 l 1
 160 224 l 1
 192 224 l 1
 192 192 l 1
 224 192 l 1
 224 160 l 1
 192 160 l 1
 192 128 l 1
 160 128 l 1
 128 128 l 1
 96 128 l 1
480 128 m 1
 480 160 l 1
 448 160 l 1
 448 192 l 1
 480 192 l 1
 480 224 l 1
 512 224 l 1
 544 224 l 1
 576 224 l 1
 576 192 l 1
 608 192 l 1
 608 160 l 1
 576 160 l 1
 576 128 l 1
 544 128 l 1
 512 128 l 1
 480 128 l 1
480 256 m 1
 480 288 l 1
 448 288 l 1
 448 320 l 1
 480 320 l 1
 480 352 l 1
 512 352 l 1
 544 352 l 1
 576 352 l 1
 576 320 l 1
 608 320 l 1
 608 288 l 1
 576 288 l 1
 576 256 l 1
 544 256 l 1
 512 256 l 1
 480 256 l 1
192 384 m 1
 192 416 l 1
 160 416 l 1
 160 448 l 1
 192 448 l 1
 192 480 l 1
 224 480 l 1
 256 480 l 1
 288 480 l 1
 320 480 l 1
 352 480 l 1
 384 480 l 1
 416 480 l 1
 448 480 l 1
 480 480 l 1
 480 448 l 1
 512 448 l 1
 512 416 l 1
 480 416 l 1
 480 384 l 1
 448 384 l 1
 416 384 l 1
 384 384 l 1
 352 384 l 1
 320 384 l 1
 288 384 l 1
 256 384 l 1
 224 384 l 1
 192 384 l 1
96 512 m 1
 96 544 l 1
 64 544 l 1
 64 576 l 1
 96 576 l 1
 96 608 l 1
 128 608 l 1
 160 608 l 1
 192 608 l 1
 192 576 l 1
 224 576 l 1
 224 544 l 1
 192 544 l 1
 192 512 l 1
 160 512 l 1
 128 512 l 1
 96 512 l 1
96 640 m 1
 96 672 l 1
 64 672 l 1
 64 704 l 1
 96 704 l 1
 96 736 l 1
 128 736 l 1
 160 736 l 1
 192 736 l 1
 192 704 l 1
 224 704 l 1
 224 672 l 1
 192 672 l 1
 192 640 l 1
 160 640 l 1
 128 640 l 1
 96 640 l 1
480 640 m 1
 480 672 l 1
 448 672 l 1
 448 704 l 1
 480 704 l 1
 480 736 l 1
 512 736 l 1
 544 736 l 1
 576 736 l 1
 576 704 l 1
 608 704 l 1
 608 672 l 1
 576 672 l 1
 576 640 l 1
 544 640 l 1
 512 640 l 1
 480 640 l 1
192 768 m 1
 192 800 l 1
 160 800 l 1
 160 832 l 1
 192 832 l 1
 192 864 l 1
 224 864 l 1
 256 864 l 1
 288 864 l 1
 320 864 l 1
 352 864 l 1
 384 864 l 1
 416 864 l 1
 448 864 l 1
 480 864 l 1
 480 832 l 1
 512 832 l 1
 512 800 l 1
 480 800 l 1
 480 768 l 1
 448 768 l 1
 416 768 l 1
 384 768 l 1
 352 768 l 1
 320 768 l 1
 288 768 l 1
 256 768 l 1
 224 768 l 1
 192 768 l 1
EndSplineSet
EndChar

StartChar: T
Encoding: 84 84 34
Width: 630
VWidth: 0
Flags: HW
LayerCount: 2
Back
Fore
SplineSet
288 0 m 1
 288 32 l 1
 256 32 l 1
 256 64 l 1
 288 64 l 1
 288 96 l 1
 320 96 l 1
 352 96 l 1
 384 96 l 1
 384 64 l 1
 416 64 l 1
 416 32 l 1
 384 32 l 1
 384 0 l 1
 352 0 l 1
 320 0 l 1
 288 0 l 1
288 128 m 1
 288 160 l 1
 256 160 l 1
 256 192 l 1
 288 192 l 1
 288 224 l 1
 320 224 l 1
 352 224 l 1
 384 224 l 1
 384 192 l 1
 416 192 l 1
 416 160 l 1
 384 160 l 1
 384 128 l 1
 352 128 l 1
 320 128 l 1
 288 128 l 1
288 256 m 1
 288 288 l 1
 256 288 l 1
 256 320 l 1
 288 320 l 1
 288 352 l 1
 320 352 l 1
 352 352 l 1
 384 352 l 1
 384 320 l 1
 416 320 l 1
 416 288 l 1
 384 288 l 1
 384 256 l 1
 352 256 l 1
 320 256 l 1
 288 256 l 1
288 384 m 1
 288 416 l 1
 256 416 l 1
 256 448 l 1
 288 448 l 1
 288 480 l 1
 320 480 l 1
 352 480 l 1
 384 480 l 1
 384 448 l 1
 416 448 l 1
 416 416 l 1
 384 416 l 1
 384 384 l 1
 352 384 l 1
 320 384 l 1
 288 384 l 1
288 512 m 1
 288 544 l 1
 256 544 l 1
 256 576 l 1
 288 576 l 1
 288 608 l 1
 320 608 l 1
 352 608 l 1
 384 608 l 1
 384 576 l 1
 416 576 l 1
 416 544 l 1
 384 544 l 1
 384 512 l 1
 352 512 l 1
 320 512 l 1
 288 512 l 1
288 640 m 1
 288 672 l 1
 256 672 l 1
 256 704 l 1
 288 704 l 1
 288 736 l 1
 320 736 l 1
 352 736 l 1
 384 736 l 1
 384 704 l 1
 416 704 l 1
 416 672 l 1
 384 672 l 1
 384 640 l 1
 352 640 l 1
 320 640 l 1
 288 640 l 1
96 768 m 1
 96 800 l 1
 64 800 l 1
 64 832 l 1
 96 832 l 1
 96 864 l 1
 128 864 l 1
 160 864 l 1
 192 864 l 1
 224 864 l 1
 256 864 l 1
 288 864 l 1
 320 864 l 1
 352 864 l 1
 384 864 l 1
 416 864 l 1
 448 864 l 1
 480 864 l 1
 512 864 l 1
 544 864 l 1
 576 864 l 1
 576 832 l 1
 608 832 l 1
 608 800 l 1
 576 800 l 1
 576 768 l 1
 544 768 l 1
 512 768 l 1
 480 768 l 1
 448 768 l 1
 416 768 l 1
 384 768 l 1
 352 768 l 1
 320 768 l 1
 288 768 l 1
 256 768 l 1
 224 768 l 1
 192 768 l 1
 160 768 l 1
 128 768 l 1
 96 768 l 1
EndSplineSet
EndChar

StartChar: U
Encoding: 85 85 35
Width: 630
VWidth: 0
Flags: HW
LayerCount: 2
Back
Fore
SplineSet
192 0 m 1
 192 32 l 1
 160 32 l 1
 160 64 l 1
 192 64 l 1
 192 96 l 1
 224 96 l 1
 256 96 l 1
 288 96 l 1
 320 96 l 1
 352 96 l 1
 384 96 l 1
 416 96 l 1
 448 96 l 1
 480 96 l 1
 480 64 l 1
 512 64 l 1
 512 32 l 1
 480 32 l 1
 480 0 l 1
 448 0 l 1
 416 0 l 1
 384 0 l 1
 352 0 l 1
 320 0 l 1
 288 0 l 1
 256 0 l 1
 224 0 l 1
 192 0 l 1
96 128 m 1
 96 160 l 1
 64 160 l 1
 64 192 l 1
 96 192 l 1
 96 224 l 1
 128 224 l 1
 160 224 l 1
 192 224 l 1
 192 192 l 1
 224 192 l 1
 224 160 l 1
 192 160 l 1
 192 128 l 1
 160 128 l 1
 128 128 l 1
 96 128 l 1
480 128 m 1
 480 160 l 1
 448 160 l 1
 448 192 l 1
 480 192 l 1
 480 224 l 1
 512 224 l 1
 544 224 l 1
 576 224 l 1
 576 192 l 1
 608 192 l 1
 608 160 l 1
 576 160 l 1
 576 128 l 1
 544 128 l 1
 512 128 l 1
 480 128 l 1
96 256 m 1
 96 288 l 1
 64 288 l 1
 64 320 l 1
 96 320 l 1
 96 352 l 1
 128 352 l 1
 160 352 l 1
 192 352 l 1
 192 320 l 1
 224 320 l 1
 224 288 l 1
 192 288 l 1
 192 256 l 1
 160 256 l 1
 128 256 l 1
 96 256 l 1
480 256 m 1
 480 288 l 1
 448 288 l 1
 448 320 l 1
 480 320 l 1
 480 352 l 1
 512 352 l 1
 544 352 l 1
 576 352 l 1
 576 320 l 1
 608 320 l 1
 608 288 l 1
 576 288 l 1
 576 256 l 1
 544 256 l 1
 512 256 l 1
 480 256 l 1
96 384 m 1
 96 416 l 1
 64 416 l 1
 64 448 l 1
 96 448 l 1
 96 480 l 1
 128 480 l 1
 160 480 l 1
 192 480 l 1
 192 448 l 1
 224 448 l 1
 224 416 l 1
 192 416 l 1
 192 384 l 1
 160 384 l 1
 128 384 l 1
 96 384 l 1
480 384 m 1
 480 416 l 1
 448 416 l 1
 448 448 l 1
 480 448 l 1
 480 480 l 1
 512 480 l 1
 544 480 l 1
 576 480 l 1
 576 448 l 1
 608 448 l 1
 608 416 l 1
 576 416 l 1
 576 384 l 1
 544 384 l 1
 512 384 l 1
 480 384 l 1
96 512 m 1
 96 544 l 1
 64 544 l 1
 64 576 l 1
 96 576 l 1
 96 608 l 1
 128 608 l 1
 160 608 l 1
 192 608 l 1
 192 576 l 1
 224 576 l 1
 224 544 l 1
 192 544 l 1
 192 512 l 1
 160 512 l 1
 128 512 l 1
 96 512 l 1
480 512 m 1
 480 544 l 1
 448 544 l 1
 448 576 l 1
 480 576 l 1
 480 608 l 1
 512 608 l 1
 544 608 l 1
 576 608 l 1
 576 576 l 1
 608 576 l 1
 608 544 l 1
 576 544 l 1
 576 512 l 1
 544 512 l 1
 512 512 l 1
 480 512 l 1
96 640 m 1
 96 672 l 1
 64 672 l 1
 64 704 l 1
 96 704 l 1
 96 736 l 1
 128 736 l 1
 160 736 l 1
 192 736 l 1
 192 704 l 1
 224 704 l 1
 224 672 l 1
 192 672 l 1
 192 640 l 1
 160 640 l 1
 128 640 l 1
 96 640 l 1
480 640 m 1
 480 672 l 1
 448 672 l 1
 448 704 l 1
 480 704 l 1
 480 736 l 1
 512 736 l 1
 544 736 l 1
 576 736 l 1
 576 704 l 1
 608 704 l 1
 608 672 l 1
 576 672 l 1
 576 640 l 1
 544 640 l 1
 512 640 l 1
 480 640 l 1
96 768 m 1
 96 800 l 1
 64 800 l 1
 64 832 l 1
 96 832 l 1
 96 864 l 1
 128 864 l 1
 160 864 l 1
 192 864 l 1
 192 832 l 1
 224 832 l 1
 224 800 l 1
 192 800 l 1
 192 768 l 1
 160 768 l 1
 128 768 l 1
 96 768 l 1
480 768 m 1
 480 800 l 1
 448 800 l 1
 448 832 l 1
 480 832 l 1
 480 864 l 1
 512 864 l 1
 544 864 l 1
 576 864 l 1
 576 832 l 1
 608 832 l 1
 608 800 l 1
 576 800 l 1
 576 768 l 1
 544 768 l 1
 512 768 l 1
 480 768 l 1
EndSplineSet
EndChar

StartChar: V
Encoding: 86 86 36
Width: 630
VWidth: 0
Flags: HW
LayerCount: 2
Back
Fore
SplineSet
288 0 m 1
 288 32 l 1
 256 32 l 1
 256 64 l 1
 288 64 l 1
 288 96 l 1
 320 96 l 1
 352 96 l 1
 384 96 l 1
 384 64 l 1
 416 64 l 1
 416 32 l 1
 384 32 l 1
 384 0 l 1
 352 0 l 1
 320 0 l 1
 288 0 l 1
192 128 m 1
 192 160 l 1
 160 160 l 1
 160 192 l 1
 192 192 l 1
 192 224 l 1
 224 224 l 1
 256 224 l 1
 288 224 l 1
 288 192 l 1
 320 192 l 1
 320 160 l 1
 288 160 l 1
 288 128 l 1
 256 128 l 1
 224 128 l 1
 192 128 l 1
384 128 m 1
 384 160 l 1
 352 160 l 1
 352 192 l 1
 384 192 l 1
 384 224 l 1
 416 224 l 1
 448 224 l 1
 480 224 l 1
 480 192 l 1
 512 192 l 1
 512 160 l 1
 480 160 l 1
 480 128 l 1
 448 128 l 1
 416 128 l 1
 384 128 l 1
96 256 m 1
 96 288 l 1
 64 288 l 1
 64 320 l 1
 96 320 l 1
 96 352 l 1
 128 352 l 1
 160 352 l 1
 192 352 l 1
 192 320 l 1
 224 320 l 1
 224 288 l 1
 192 288 l 1
 192 256 l 1
 160 256 l 1
 128 256 l 1
 96 256 l 1
480 256 m 1
 480 288 l 1
 448 288 l 1
 448 320 l 1
 480 320 l 1
 480 352 l 1
 512 352 l 1
 544 352 l 1
 576 352 l 1
 576 320 l 1
 608 320 l 1
 608 288 l 1
 576 288 l 1
 576 256 l 1
 544 256 l 1
 512 256 l 1
 480 256 l 1
96 384 m 1
 96 416 l 1
 64 416 l 1
 64 448 l 1
 96 448 l 1
 96 480 l 1
 128 480 l 1
 160 480 l 1
 192 480 l 1
 192 448 l 1
 224 448 l 1
 224 416 l 1
 192 416 l 1
 192 384 l 1
 160 384 l 1
 128 384 l 1
 96 384 l 1
480 384 m 1
 480 416 l 1
 448 416 l 1
 448 448 l 1
 480 448 l 1
 480 480 l 1
 512 480 l 1
 544 480 l 1
 576 480 l 1
 576 448 l 1
 608 448 l 1
 608 416 l 1
 576 416 l 1
 576 384 l 1
 544 384 l 1
 512 384 l 1
 480 384 l 1
96 512 m 1
 96 544 l 1
 64 544 l 1
 64 576 l 1
 96 576 l 1
 96 608 l 1
 128 608 l 1
 160 608 l 1
 192 608 l 1
 192 576 l 1
 224 576 l 1
 224 544 l 1
 192 544 l 1
 192 512 l 1
 160 512 l 1
 128 512 l 1
 96 512 l 1
480 512 m 1
 480 544 l 1
 448 544 l 1
 448 576 l 1
 480 576 l 1
 480 608 l 1
 512 608 l 1
 544 608 l 1
 576 608 l 1
 576 576 l 1
 608 576 l 1
 608 544 l 1
 576 544 l 1
 576 512 l 1
 544 512 l 1
 512 512 l 1
 480 512 l 1
96 640 m 1
 96 672 l 1
 64 672 l 1
 64 704 l 1
 96 704 l 1
 96 736 l 1
 128 736 l 1
 160 736 l 1
 192 736 l 1
 192 704 l 1
 224 704 l 1
 224 672 l 1
 192 672 l 1
 192 640 l 1
 160 640 l 1
 128 640 l 1
 96 640 l 1
480 640 m 1
 480 672 l 1
 448 672 l 1
 448 704 l 1
 480 704 l 1
 480 736 l 1
 512 736 l 1
 544 736 l 1
 576 736 l 1
 576 704 l 1
 608 704 l 1
 608 672 l 1
 576 672 l 1
 576 640 l 1
 544 640 l 1
 512 640 l 1
 480 640 l 1
96 768 m 1
 96 800 l 1
 64 800 l 1
 64 832 l 1
 96 832 l 1
 96 864 l 1
 128 864 l 1
 160 864 l 1
 192 864 l 1
 192 832 l 1
 224 832 l 1
 224 800 l 1
 192 800 l 1
 192 768 l 1
 160 768 l 1
 128 768 l 1
 96 768 l 1
480 768 m 1
 480 800 l 1
 448 800 l 1
 448 832 l 1
 480 832 l 1
 480 864 l 1
 512 864 l 1
 544 864 l 1
 576 864 l 1
 576 832 l 1
 608 832 l 1
 608 800 l 1
 576 800 l 1
 576 768 l 1
 544 768 l 1
 512 768 l 1
 480 768 l 1
EndSplineSet
EndChar

StartChar: W
Encoding: 87 87 37
Width: 630
VWidth: 0
Flags: HW
LayerCount: 2
Back
Fore
SplineSet
96 0 m 1
 96 32 l 1
 64 32 l 1
 64 64 l 1
 96 64 l 1
 96 96 l 1
 128 96 l 1
 160 96 l 1
 192 96 l 1
 192 64 l 1
 224 64 l 1
 224 32 l 1
 192 32 l 1
 192 0 l 1
 160 0 l 1
 128 0 l 1
 96 0 l 1
480 0 m 1
 480 32 l 1
 448 32 l 1
 448 64 l 1
 480 64 l 1
 480 96 l 1
 512 96 l 1
 544 96 l 1
 576 96 l 1
 576 64 l 1
 608 64 l 1
 608 32 l 1
 576 32 l 1
 576 0 l 1
 544 0 l 1
 512 0 l 1
 480 0 l 1
96 128 m 1
 96 160 l 1
 64 160 l 1
 64 192 l 1
 96 192 l 1
 96 224 l 1
 128 224 l 1
 160 224 l 1
 192 224 l 1
 224 224 l 1
 256 224 l 1
 288 224 l 1
 288 192 l 1
 320 192 l 1
 320 160 l 1
 288 160 l 1
 288 128 l 1
 256 128 l 1
 224 128 l 1
 192 128 l 1
 160 128 l 1
 128 128 l 1
 96 128 l 1
384 128 m 1
 384 160 l 1
 352 160 l 1
 352 192 l 1
 384 192 l 1
 384 224 l 1
 416 224 l 1
 448 224 l 1
 480 224 l 1
 512 224 l 1
 544 224 l 1
 576 224 l 1
 576 192 l 1
 608 192 l 1
 608 160 l 1
 576 160 l 1
 576 128 l 1
 544 128 l 1
 512 128 l 1
 480 128 l 1
 448 128 l 1
 416 128 l 1
 384 128 l 1
96 256 m 1
 96 288 l 1
 64 288 l 1
 64 320 l 1
 96 320 l 1
 96 352 l 1
 128 352 l 1
 160 352 l 1
 192 352 l 1
 192 320 l 1
 224 320 l 1
 224 288 l 1
 192 288 l 1
 192 256 l 1
 160 256 l 1
 128 256 l 1
 96 256 l 1
288 256 m 1
 288 288 l 1
 256 288 l 1
 256 320 l 1
 288 320 l 1
 288 352 l 1
 320 352 l 1
 352 352 l 1
 384 352 l 1
 384 320 l 1
 416 320 l 1
 416 288 l 1
 384 288 l 1
 384 256 l 1
 352 256 l 1
 320 256 l 1
 288 256 l 1
480 256 m 1
 480 288 l 1
 448 288 l 1
 448 320 l 1
 480 320 l 1
 480 352 l 1
 512 352 l 1
 544 352 l 1
 576 352 l 1
 576 320 l 1
 608 320 l 1
 608 288 l 1
 576 288 l 1
 576 256 l 1
 544 256 l 1
 512 256 l 1
 480 256 l 1
96 384 m 1
 96 416 l 1
 64 416 l 1
 64 448 l 1
 96 448 l 1
 96 480 l 1
 128 480 l 1
 160 480 l 1
 192 480 l 1
 192 448 l 1
 224 448 l 1
 224 416 l 1
 192 416 l 1
 192 384 l 1
 160 384 l 1
 128 384 l 1
 96 384 l 1
288 384 m 1
 288 416 l 1
 256 416 l 1
 256 448 l 1
 288 448 l 1
 288 480 l 1
 320 480 l 1
 352 480 l 1
 384 480 l 1
 384 448 l 1
 416 448 l 1
 416 416 l 1
 384 416 l 1
 384 384 l 1
 352 384 l 1
 320 384 l 1
 288 384 l 1
480 384 m 1
 480 416 l 1
 448 416 l 1
 448 448 l 1
 480 448 l 1
 480 480 l 1
 512 480 l 1
 544 480 l 1
 576 480 l 1
 576 448 l 1
 608 448 l 1
 608 416 l 1
 576 416 l 1
 576 384 l 1
 544 384 l 1
 512 384 l 1
 480 384 l 1
96 512 m 1
 96 544 l 1
 64 544 l 1
 64 576 l 1
 96 576 l 1
 96 608 l 1
 128 608 l 1
 160 608 l 1
 192 608 l 1
 192 576 l 1
 224 576 l 1
 224 544 l 1
 192 544 l 1
 192 512 l 1
 160 512 l 1
 128 512 l 1
 96 512 l 1
480 512 m 1
 480 544 l 1
 448 544 l 1
 448 576 l 1
 480 576 l 1
 480 608 l 1
 512 608 l 1
 544 608 l 1
 576 608 l 1
 576 576 l 1
 608 576 l 1
 608 544 l 1
 576 544 l 1
 576 512 l 1
 544 512 l 1
 512 512 l 1
 480 512 l 1
96 640 m 1
 96 672 l 1
 64 672 l 1
 64 704 l 1
 96 704 l 1
 96 736 l 1
 128 736 l 1
 160 736 l 1
 192 736 l 1
 192 704 l 1
 224 704 l 1
 224 672 l 1
 192 672 l 1
 192 640 l 1
 160 640 l 1
 128 640 l 1
 96 640 l 1
480 640 m 1
 480 672 l 1
 448 672 l 1
 448 704 l 1
 480 704 l 1
 480 736 l 1
 512 736 l 1
 544 736 l 1
 576 736 l 1
 576 704 l 1
 608 704 l 1
 608 672 l 1
 576 672 l 1
 576 640 l 1
 544 640 l 1
 512 640 l 1
 480 640 l 1
96 768 m 1
 96 800 l 1
 64 800 l 1
 64 832 l 1
 96 832 l 1
 96 864 l 1
 128 864 l 1
 160 864 l 1
 192 864 l 1
 192 832 l 1
 224 832 l 1
 224 800 l 1
 192 800 l 1
 192 768 l 1
 160 768 l 1
 128 768 l 1
 96 768 l 1
480 768 m 1
 480 800 l 1
 448 800 l 1
 448 832 l 1
 480 832 l 1
 480 864 l 1
 512 864 l 1
 544 864 l 1
 576 864 l 1
 576 832 l 1
 608 832 l 1
 608 800 l 1
 576 800 l 1
 576 768 l 1
 544 768 l 1
 512 768 l 1
 480 768 l 1
EndSplineSet
EndChar

StartChar: X
Encoding: 88 88 38
Width: 630
VWidth: 0
Flags: HW
LayerCount: 2
Back
Fore
SplineSet
96 0 m 1
 96 32 l 1
 64 32 l 1
 64 64 l 1
 96 64 l 1
 96 96 l 1
 128 96 l 1
 160 96 l 1
 192 96 l 1
 192 64 l 1
 224 64 l 1
 224 32 l 1
 192 32 l 1
 192 0 l 1
 160 0 l 1
 128 0 l 1
 96 0 l 1
480 0 m 1
 480 32 l 1
 448 32 l 1
 448 64 l 1
 480 64 l 1
 480 96 l 1
 512 96 l 1
 544 96 l 1
 576 96 l 1
 576 64 l 1
 608 64 l 1
 608 32 l 1
 576 32 l 1
 576 0 l 1
 544 0 l 1
 512 0 l 1
 480 0 l 1
96 128 m 1
 96 160 l 1
 64 160 l 1
 64 192 l 1
 96 192 l 1
 96 224 l 1
 128 224 l 1
 160 224 l 1
 192 224 l 1
 192 192 l 1
 224 192 l 1
 224 160 l 1
 192 160 l 1
 192 128 l 1
 160 128 l 1
 128 128 l 1
 96 128 l 1
480 128 m 1
 480 160 l 1
 448 160 l 1
 448 192 l 1
 480 192 l 1
 480 224 l 1
 512 224 l 1
 544 224 l 1
 576 224 l 1
 576 192 l 1
 608 192 l 1
 608 160 l 1
 576 160 l 1
 576 128 l 1
 544 128 l 1
 512 128 l 1
 480 128 l 1
192 256 m 1
 192 288 l 1
 160 288 l 1
 160 320 l 1
 192 320 l 1
 192 352 l 1
 224 352 l 1
 256 352 l 1
 288 352 l 1
 288 320 l 1
 320 320 l 1
 320 288 l 1
 288 288 l 1
 288 256 l 1
 256 256 l 1
 224 256 l 1
 192 256 l 1
384 256 m 1
 384 288 l 1
 352 288 l 1
 352 320 l 1
 384 320 l 1
 384 352 l 1
 416 352 l 1
 448 352 l 1
 480 352 l 1
 480 320 l 1
 512 320 l 1
 512 288 l 1
 480 288 l 1
 480 256 l 1
 448 256 l 1
 416 256 l 1
 384 256 l 1
288 384 m 1
 288 416 l 1
 256 416 l 1
 256 448 l 1
 288 448 l 1
 288 480 l 1
 320 480 l 1
 352 480 l 1
 384 480 l 1
 384 448 l 1
 416 448 l 1
 416 416 l 1
 384 416 l 1
 384 384 l 1
 352 384 l 1
 320 384 l 1
 288 384 l 1
192 512 m 1
 192 544 l 1
 160 544 l 1
 160 576 l 1
 192 576 l 1
 192 608 l 1
 224 608 l 1
 256 608 l 1
 288 608 l 1
 288 576 l 1
 320 576 l 1
 320 544 l 1
 288 544 l 1
 288 512 l 1
 256 512 l 1
 224 512 l 1
 192 512 l 1
384 512 m 1
 384 544 l 1
 352 544 l 1
 352 576 l 1
 384 576 l 1
 384 608 l 1
 416 608 l 1
 448 608 l 1
 480 608 l 1
 480 576 l 1
 512 576 l 1
 512 544 l 1
 480 544 l 1
 480 512 l 1
 448 512 l 1
 416 512 l 1
 384 512 l 1
96 640 m 1
 96 672 l 1
 64 672 l 1
 64 704 l 1
 96 704 l 1
 96 736 l 1
 128 736 l 1
 160 736 l 1
 192 736 l 1
 192 704 l 1
 224 704 l 1
 224 672 l 1
 192 672 l 1
 192 640 l 1
 160 640 l 1
 128 640 l 1
 96 640 l 1
480 640 m 1
 480 672 l 1
 448 672 l 1
 448 704 l 1
 480 704 l 1
 480 736 l 1
 512 736 l 1
 544 736 l 1
 576 736 l 1
 576 704 l 1
 608 704 l 1
 608 672 l 1
 576 672 l 1
 576 640 l 1
 544 640 l 1
 512 640 l 1
 480 640 l 1
96 768 m 1
 96 800 l 1
 64 800 l 1
 64 832 l 1
 96 832 l 1
 96 864 l 1
 128 864 l 1
 160 864 l 1
 192 864 l 1
 192 832 l 1
 224 832 l 1
 224 800 l 1
 192 800 l 1
 192 768 l 1
 160 768 l 1
 128 768 l 1
 96 768 l 1
480 768 m 1
 480 800 l 1
 448 800 l 1
 448 832 l 1
 480 832 l 1
 480 864 l 1
 512 864 l 1
 544 864 l 1
 576 864 l 1
 576 832 l 1
 608 832 l 1
 608 800 l 1
 576 800 l 1
 576 768 l 1
 544 768 l 1
 512 768 l 1
 480 768 l 1
EndSplineSet
EndChar

StartChar: Y
Encoding: 89 89 39
Width: 630
VWidth: 0
Flags: HW
LayerCount: 2
Back
Fore
SplineSet
288 0 m 1
 288 32 l 1
 256 32 l 1
 256 64 l 1
 288 64 l 1
 288 96 l 1
 320 96 l 1
 352 96 l 1
 384 96 l 1
 384 64 l 1
 416 64 l 1
 416 32 l 1
 384 32 l 1
 384 0 l 1
 352 0 l 1
 320 0 l 1
 288 0 l 1
288 128 m 1
 288 160 l 1
 256 160 l 1
 256 192 l 1
 288 192 l 1
 288 224 l 1
 320 224 l 1
 352 224 l 1
 384 224 l 1
 384 192 l 1
 416 192 l 1
 416 160 l 1
 384 160 l 1
 384 128 l 1
 352 128 l 1
 320 128 l 1
 288 128 l 1
288 256 m 1
 288 288 l 1
 256 288 l 1
 256 320 l 1
 288 320 l 1
 288 352 l 1
 320 352 l 1
 352 352 l 1
 384 352 l 1
 384 320 l 1
 416 320 l 1
 416 288 l 1
 384 288 l 1
 384 256 l 1
 352 256 l 1
 320 256 l 1
 288 256 l 1
288 384 m 1
 288 416 l 1
 256 416 l 1
 256 448 l 1
 288 448 l 1
 288 480 l 1
 320 480 l 1
 352 480 l 1
 384 480 l 1
 384 448 l 1
 416 448 l 1
 416 416 l 1
 384 416 l 1
 384 384 l 1
 352 384 l 1
 320 384 l 1
 288 384 l 1
192 512 m 1
 192 544 l 1
 160 544 l 1
 160 576 l 1
 192 576 l 1
 192 608 l 1
 224 608 l 1
 256 608 l 1
 288 608 l 1
 288 576 l 1
 320 576 l 1
 320 544 l 1
 288 544 l 1
 288 512 l 1
 256 512 l 1
 224 512 l 1
 192 512 l 1
384 512 m 1
 384 544 l 1
 352 544 l 1
 352 576 l 1
 384 576 l 1
 384 608 l 1
 416 608 l 1
 448 608 l 1
 480 608 l 1
 480 576 l 1
 512 576 l 1
 512 544 l 1
 480 544 l 1
 480 512 l 1
 448 512 l 1
 416 512 l 1
 384 512 l 1
96 640 m 1
 96 672 l 1
 64 672 l 1
 64 704 l 1
 96 704 l 1
 96 736 l 1
 128 736 l 1
 160 736 l 1
 192 736 l 1
 192 704 l 1
 224 704 l 1
 224 672 l 1
 192 672 l 1
 192 640 l 1
 160 640 l 1
 128 640 l 1
 96 640 l 1
480 640 m 1
 480 672 l 1
 448 672 l 1
 448 704 l 1
 480 704 l 1
 480 736 l 1
 512 736 l 1
 544 736 l 1
 576 736 l 1
 576 704 l 1
 608 704 l 1
 608 672 l 1
 576 672 l 1
 576 640 l 1
 544 640 l 1
 512 640 l 1
 480 640 l 1
96 768 m 1
 96 800 l 1
 64 800 l 1
 64 832 l 1
 96 832 l 1
 96 864 l 1
 128 864 l 1
 160 864 l 1
 192 864 l 1
 192 832 l 1
 224 832 l 1
 224 800 l 1
 192 800 l 1
 192 768 l 1
 160 768 l 1
 128 768 l 1
 96 768 l 1
480 768 m 1
 480 800 l 1
 448 800 l 1
 448 832 l 1
 480 832 l 1
 480 864 l 1
 512 864 l 1
 544 864 l 1
 576 864 l 1
 576 832 l 1
 608 832 l 1
 608 800 l 1
 576 800 l 1
 576 768 l 1
 544 768 l 1
 512 768 l 1
 480 768 l 1
EndSplineSet
EndChar

StartChar: Z
Encoding: 90 90 40
Width: 630
VWidth: 0
Flags: HW
LayerCount: 2
Back
Fore
SplineSet
96 0 m 1
 96 32 l 1
 64 32 l 1
 64 64 l 1
 96 64 l 1
 96 96 l 1
 128 96 l 1
 160 96 l 1
 192 96 l 1
 224 96 l 1
 256 96 l 1
 288 96 l 1
 320 96 l 1
 352 96 l 1
 384 96 l 1
 416 96 l 1
 448 96 l 1
 480 96 l 1
 512 96 l 1
 544 96 l 1
 576 96 l 1
 576 64 l 1
 608 64 l 1
 608 32 l 1
 576 32 l 1
 576 0 l 1
 544 0 l 1
 512 0 l 1
 480 0 l 1
 448 0 l 1
 416 0 l 1
 384 0 l 1
 352 0 l 1
 320 0 l 1
 288 0 l 1
 256 0 l 1
 224 0 l 1
 192 0 l 1
 160 0 l 1
 128 0 l 1
 96 0 l 1
96 128 m 1
 96 160 l 1
 64 160 l 1
 64 192 l 1
 96 192 l 1
 96 224 l 1
 128 224 l 1
 160 224 l 1
 192 224 l 1
 192 192 l 1
 224 192 l 1
 224 160 l 1
 192 160 l 1
 192 128 l 1
 160 128 l 1
 128 128 l 1
 96 128 l 1
192 256 m 1
 192 288 l 1
 160 288 l 1
 160 320 l 1
 192 320 l 1
 192 352 l 1
 224 352 l 1
 256 352 l 1
 288 352 l 1
 288 320 l 1
 320 320 l 1
 320 288 l 1
 288 288 l 1
 288 256 l 1
 256 256 l 1
 224 256 l 1
 192 256 l 1
288 384 m 1
 288 416 l 1
 256 416 l 1
 256 448 l 1
 288 448 l 1
 288 480 l 1
 320 480 l 1
 352 480 l 1
 384 480 l 1
 384 448 l 1
 416 448 l 1
 416 416 l 1
 384 416 l 1
 384 384 l 1
 352 384 l 1
 320 384 l 1
 288 384 l 1
384 512 m 1
 384 544 l 1
 352 544 l 1
 352 576 l 1
 384 576 l 1
 384 608 l 1
 416 608 l 1
 448 608 l 1
 480 608 l 1
 480 576 l 1
 512 576 l 1
 512 544 l 1
 480 544 l 1
 480 512 l 1
 448 512 l 1
 416 512 l 1
 384 512 l 1
480 640 m 1
 480 672 l 1
 448 672 l 1
 448 704 l 1
 480 704 l 1
 480 736 l 1
 512 736 l 1
 544 736 l 1
 576 736 l 1
 576 704 l 1
 608 704 l 1
 608 672 l 1
 576 672 l 1
 576 640 l 1
 544 640 l 1
 512 640 l 1
 480 640 l 1
96 768 m 1
 96 800 l 1
 64 800 l 1
 64 832 l 1
 96 832 l 1
 96 864 l 1
 128 864 l 1
 160 864 l 1
 192 864 l 1
 224 864 l 1
 256 864 l 1
 288 864 l 1
 320 864 l 1
 352 864 l 1
 384 864 l 1
 416 864 l 1
 448 864 l 1
 480 864 l 1
 512 864 l 1
 544 864 l 1
 576 864 l 1
 576 832 l 1
 608 832 l 1
 608 800 l 1
 576 800 l 1
 576 768 l 1
 544 768 l 1
 512 768 l 1
 480 768 l 1
 448 768 l 1
 416 768 l 1
 384 768 l 1
 352 768 l 1
 320 768 l 1
 288 768 l 1
 256 768 l 1
 224 768 l 1
 192 768 l 1
 160 768 l 1
 128 768 l 1
 96 768 l 1
EndSplineSet
EndChar

